<?xml version="1.0" standalone="no"?>
<!DOCTYPE svg PUBLIC "-//W3C//DTD SVG 20010904//EN"
 "http://www.w3.org/TR/2001/REC-SVG-20010904/DTD/svg10.dtd">
<svg version="1.0" xmlns="http://www.w3.org/2000/svg"
 width="998.000000pt" height="998.000000pt" viewBox="0 0 998.000000 998.000000"
 preserveAspectRatio="xMidYMid meet">
<metadata>
Created by potrace 1.14, written by Peter Selinger 2001-2017
</metadata>
<g transform="translate(0.000000,998.000000) scale(0.100000,-0.100000)"
fill="#000000" stroke="none">
<path d="M3258 8251 c-11 -25 -23 -55 -28 -66 -5 -11 -52 -128 -105 -260 -96
-237 -118 -291 -135 -330 -32 -71 -112 -272 -113 -282 0 -7 -4 -13 -9 -13 -4
0 -8 -6 -8 -12 0 -7 -25 -74 -56 -148 -30 -74 -94 -229 -141 -345 -47 -115
-88 -214 -91 -220 -4 -5 -7 -16 -8 -23 -1 -6 -12 -32 -24 -57 -12 -25 -23 -51
-24 -57 -1 -7 -10 -31 -20 -53 -10 -22 -26 -62 -37 -90 -11 -27 -24 -59 -29
-70 -17 -36 -112 -270 -114 -280 -1 -5 -12 -32 -24 -59 -12 -27 -22 -51 -22
-53 0 -3 -6 -19 -14 -36 -20 -44 -176 -427 -176 -432 0 -2 -11 -29 -25 -59
-14 -30 -25 -57 -25 -60 0 -3 -11 -30 -25 -60 -14 -30 -25 -60 -25 -66 0 -7
-7 -24 -15 -38 -8 -15 -96 -227 -195 -472 -99 -245 -185 -454 -190 -465 -5
-11 -25 -60 -45 -110 -19 -49 -42 -102 -51 -117 -8 -16 -12 -28 -8 -28 3 0 -1
-11 -10 -25 -9 -13 -16 -29 -16 -35 0 -6 -9 -30 -19 -53 -10 -23 -34 -80 -53
-127 -19 -47 -39 -94 -43 -105 -5 -11 -9 -22 -10 -25 -1 -3 -6 -14 -10 -25
-43 -101 -114 -279 -112 -281 2 -3 123 -6 179 -5 35 1 37 3 66 74 17 39 39 90
48 112 10 22 18 45 20 50 1 6 11 33 23 60 34 76 37 84 70 166 17 42 36 90 42
105 7 16 13 31 14 34 1 3 6 16 12 30 6 14 37 88 68 165 31 77 66 159 76 182
10 23 19 44 19 46 0 3 8 22 17 43 9 22 18 44 19 49 1 6 12 33 24 60 12 28 25
59 29 70 5 11 13 31 19 45 6 14 23 54 38 90 14 36 32 79 39 95 7 17 32 77 55
135 23 58 48 119 55 135 7 17 23 55 35 85 12 30 28 69 35 85 7 17 23 57 36 90
13 33 28 63 32 66 5 3 8 9 7 13 -1 7 34 104 55 151 21 45 48 109 49 115 3 12
71 177 83 200 7 14 13 31 13 38 0 7 5 20 10 30 10 17 149 348 154 367 2 6 8
21 13 35 12 27 111 270 138 335 16 40 26 64 50 120 7 17 23 55 34 85 12 30 26
64 31 75 5 11 30 72 55 135 25 63 53 131 62 150 9 19 16 41 16 48 0 6 4 12 8
12 4 0 10 11 13 25 4 14 18 50 31 80 14 29 25 57 25 60 0 3 8 25 18 48 11 23
34 79 52 124 19 46 35 82 36 80 1 -1 30 -74 64 -162 34 -88 81 -211 106 -273
24 -62 44 -115 44 -118 0 -3 7 -22 16 -42 21 -48 26 -62 64 -162 18 -47 38
-98 45 -115 7 -16 16 -41 20 -55 4 -14 15 -43 25 -65 10 -22 23 -56 30 -75 7
-19 16 -44 21 -55 4 -11 36 -92 69 -180 34 -88 66 -169 71 -180 11 -25 31 -77
35 -90 3 -13 113 -295 124 -320 5 -11 32 -81 61 -155 28 -74 73 -191 100 -260
53 -136 50 -109 35 -330 -11 -149 -16 -223 -21 -295 -5 -78 -13 -189 -19 -280
-3 -33 -7 -105 -11 -160 -3 -55 -8 -122 -10 -150 -3 -45 -10 -146 -20 -295
-11 -165 -17 -260 -21 -300 -2 -25 -6 -88 -9 -140 -4 -52 -7 -106 -8 -120 -2
-24 -2 -24 96 -25 54 0 102 2 106 5 5 3 12 46 15 95 4 50 9 122 12 160 8 105
13 189 19 295 3 52 7 124 10 160 12 153 16 221 21 310 2 52 6 118 8 145 7 92
19 270 20 302 0 18 3 29 7 25 6 -8 69 -165 69 -174 0 -3 10 -27 22 -54 12 -27
22 -51 23 -54 1 -8 31 -87 58 -150 8 -19 23 -57 32 -85 10 -27 22 -55 27 -61
4 -6 9 -19 11 -30 2 -10 11 -37 21 -59 10 -22 19 -44 20 -50 1 -5 10 -27 19
-49 9 -21 17 -42 17 -47 0 -5 4 -17 10 -27 5 -9 30 -71 55 -137 26 -66 58
-149 72 -185 14 -36 29 -74 33 -85 4 -11 12 -31 18 -45 6 -14 25 -64 44 -112
l33 -88 55 0 c154 -2 483 0 485 2 2 2 -9 35 -25 73 -15 39 -50 131 -79 205
-28 74 -56 143 -61 152 -6 10 -10 23 -10 29 0 6 -7 25 -15 42 -8 18 -39 97
-70 177 -31 80 -67 172 -80 205 -13 33 -42 110 -65 170 -23 61 -48 122 -56
138 -8 15 -12 27 -8 27 3 0 2 6 -3 13 -8 10 -44 97 -49 117 0 3 -6 19 -13 35
-21 53 -75 191 -235 605 -87 223 -162 416 -168 430 -33 77 -112 284 -111 290
1 4 7 93 18 285 4 65 15 224 20 290 2 22 4 70 5 108 2 37 6 67 9 67 3 0 17
-26 30 -58 29 -67 64 -145 119 -262 21 -47 43 -96 47 -110 4 -14 11 -29 15
-35 5 -5 29 -57 54 -114 64 -142 85 -188 112 -246 22 -48 249 -552 349 -775
26 -58 65 -143 86 -188 21 -46 39 -86 39 -88 0 -4 32 -74 96 -212 24 -52 44
-95 44 -97 0 -1 14 -33 32 -71 17 -38 32 -71 33 -74 0 -3 13 -31 28 -63 15
-32 27 -62 27 -67 0 -6 4 -10 10 -10 5 0 9 -3 8 -7 -2 -10 8 -35 37 -98 22
-49 52 -114 93 -205 79 -175 177 -393 197 -435 13 -27 42 -93 65 -145 24 -52
44 -97 46 -99 3 -3 53 -5 113 -6 l109 -1 48 115 c26 64 54 132 63 151 8 19 15
37 16 40 2 6 16 39 40 95 9 22 33 78 51 125 19 47 41 99 49 117 8 17 15 33 15
36 0 2 10 26 22 53 12 27 23 58 25 68 2 11 9 26 15 34 7 8 13 19 14 26 2 10
53 136 74 181 11 24 32 76 36 90 2 8 81 199 129 310 4 11 9 22 10 25 1 3 6 14
10 25 71 166 175 423 175 432 0 7 4 13 10 13 5 0 9 3 8 8 -2 4 6 27 16 52 11
25 20 47 21 50 1 3 6 16 12 30 6 14 27 66 47 115 21 50 41 99 46 110 14 31
137 327 182 440 22 55 44 106 50 113 6 6 8 12 5 12 -5 0 46 125 88 217 8 17
15 38 15 46 0 9 4 18 9 21 4 3 16 27 26 53 10 26 28 72 41 101 13 29 24 55 24
58 0 5 28 72 70 169 5 11 34 83 65 160 31 77 62 154 70 170 7 17 21 49 31 72
25 60 27 56 38 -68 4 -41 9 -92 12 -114 3 -22 7 -58 9 -80 3 -43 14 -137 21
-195 2 -19 6 -62 9 -95 4 -33 8 -73 10 -90 2 -16 6 -61 10 -100 4 -38 8 -81
11 -95 2 -14 6 -59 9 -100 4 -41 8 -86 10 -100 7 -45 15 -124 20 -185 3 -33 7
-76 10 -95 3 -19 8 -60 10 -90 3 -30 7 -68 9 -85 6 -40 19 -183 20 -217 1 -16
3 -28 6 -28 3 0 6 -19 6 -43 2 -57 13 -176 19 -207 5 -29 16 -128 20 -185 1
-22 5 -60 8 -85 4 -25 9 -72 12 -105 8 -83 13 -131 21 -195 8 -76 13 -126 18
-185 3 -27 7 -70 10 -95 3 -25 8 -70 11 -100 3 -30 7 -71 9 -90 5 -35 14 -119
21 -195 7 -72 16 -159 21 -195 2 -19 6 -59 9 -88 2 -29 7 -72 10 -95 3 -23 8
-67 11 -97 10 -109 14 -146 17 -181 2 -20 7 -40 10 -45 4 -7 463 -12 499 -5 4
0 5 11 3 22 -5 26 -17 134 -30 269 -11 121 -24 241 -30 285 -4 30 -14 135 -20
196 -8 82 -21 208 -29 279 -3 25 -8 72 -12 105 -3 33 -7 74 -9 90 -2 17 -6 55
-9 85 -3 30 -8 73 -10 95 -3 22 -8 66 -11 98 -2 32 -7 77 -10 100 -3 23 -7 62
-9 87 -3 25 -7 70 -10 100 -4 30 -8 75 -11 100 -2 25 -6 65 -9 90 -3 25 -8 72
-11 105 -4 33 -8 71 -9 85 -2 14 -6 54 -10 90 -3 36 -8 76 -10 90 -4 23 -16
147 -21 215 -2 17 -6 53 -9 80 -3 28 -8 75 -11 105 -3 30 -7 69 -9 85 -2 17
-7 62 -11 100 -4 39 -9 84 -11 100 -2 17 -6 59 -10 95 -3 36 -7 81 -10 100 -5
42 -12 117 -18 185 -3 28 -7 64 -10 80 -3 17 -8 59 -11 95 -3 36 -7 81 -9 100
-3 19 -7 64 -11 100 -4 36 -8 79 -10 95 -2 17 -7 59 -9 95 -3 36 -8 76 -11 90
-2 14 -7 54 -10 90 -3 36 -7 83 -9 105 -3 22 -8 68 -11 103 -4 35 -8 71 -10
80 -1 9 -6 53 -10 97 -3 44 -8 94 -10 110 -3 17 -7 55 -10 85 -3 30 -7 69 -9
85 -2 17 -7 64 -11 105 -4 41 -9 84 -10 95 -1 11 -3 26 -4 33 -1 10 -22 12
-87 10 l-85 -3 -80 -195 c-123 -301 -208 -505 -256 -620 -25 -58 -46 -109 -47
-115 -1 -5 -8 -21 -16 -35 -7 -14 -12 -25 -11 -25 2 0 -4 -18 -14 -40 -9 -22
-38 -94 -65 -160 -27 -66 -60 -145 -74 -176 -14 -31 -22 -60 -19 -63 4 -3 1
-6 -5 -6 -7 0 -12 -6 -12 -12 0 -15 -74 -197 -98 -243 -9 -16 -15 -32 -15 -35
1 -3 -7 -25 -18 -49 -10 -24 -19 -46 -19 -48 0 -3 -6 -19 -14 -36 -14 -31
-168 -403 -283 -687 -30 -74 -64 -154 -74 -177 -10 -23 -19 -48 -19 -55 0 -8
-4 -18 -8 -24 -5 -5 -33 -67 -62 -139 -28 -71 -58 -143 -66 -160 -7 -16 -27
-66 -44 -110 -17 -44 -38 -95 -46 -113 -8 -17 -35 -83 -60 -145 -25 -61 -51
-125 -59 -142 -7 -16 -27 -66 -45 -110 -17 -44 -37 -94 -45 -110 -16 -36 -37
-86 -41 -100 -3 -9 -154 -377 -173 -420 -5 -11 -16 -36 -24 -54 l-15 -35 -28
60 c-16 32 -29 61 -29 64 -1 3 -16 36 -33 74 -18 38 -32 70 -32 72 0 1 -22 50
-50 109 -27 59 -50 108 -50 111 0 2 -22 52 -50 110 -27 58 -50 108 -50 110 0
3 -18 43 -40 90 -22 47 -40 87 -40 89 0 2 -16 38 -35 79 -19 42 -51 110 -70
152 -19 41 -35 77 -35 80 0 2 -15 37 -34 76 -19 40 -46 98 -59 128 -14 30 -34
75 -45 100 -153 342 -208 464 -229 510 -46 101 -61 135 -86 190 -26 58 -191
425 -234 520 -13 30 -35 78 -48 105 -12 28 -51 113 -85 190 -35 77 -80 178
-101 223 -22 46 -39 85 -39 87 0 2 -15 36 -34 77 -18 40 -43 96 -56 123 -12
28 -40 87 -61 133 -21 45 -39 84 -39 87 0 2 -13 34 -30 70 -71 154 -89 194
-120 265 -18 41 -50 111 -70 155 -20 44 -49 108 -65 143 l-28 62 -278 0 c-154
0 -279 -1 -279 -3 0 -2 9 -22 20 -44 11 -23 37 -81 59 -130 21 -48 55 -123 75
-166 20 -43 36 -80 36 -82 0 -2 21 -47 46 -102 26 -54 63 -136 84 -183 21 -47
52 -116 70 -155 18 -38 61 -134 95 -212 71 -158 66 -126 49 -363 -3 -47 -7
-107 -9 -135 -1 -27 -6 -99 -11 -160 -4 -60 -7 -125 -7 -142 0 -18 -3 -33 -7
-33 -4 0 -13 15 -20 33 -7 17 -16 41 -21 52 -8 19 -132 340 -209 540 -21 55
-44 114 -51 130 -7 17 -13 32 -13 35 -3 10 -59 156 -72 185 -7 17 -34 86 -60
155 -26 69 -52 139 -59 155 -7 17 -23 57 -35 90 -12 33 -29 74 -36 92 -8 17
-14 35 -14 40 -1 4 -9 26 -20 48 -11 22 -19 44 -20 50 0 8 -48 134 -81 210 -4
11 -15 36 -23 56 l-14 37 -112 -1 -113 -1 -19 -45z"/>
<path d="M4680 2285 c-59 -12 -111 -36 -143 -66 -12 -10 -24 -19 -28 -19 -4 0
-10 -8 -13 -18 -4 -10 -14 -27 -24 -38 -26 -28 -49 -121 -46 -183 9 -165 166
-303 327 -288 69 6 136 33 182 71 l29 25 -20 20 c-21 19 -21 19 -55 -13 -69
-66 -181 -80 -261 -33 -148 87 -179 298 -63 429 83 94 235 102 325 17 31 -30
32 -30 51 -13 20 18 20 18 -8 45 -61 57 -163 83 -253 64z"/>
<path d="M800 2272 l-108 -3 0 -300 0 -299 166 2 c148 3 165 5 168 21 2 19
-18 21 -178 18 -88 -1 -79 -13 -79 104 0 30 0 73 0 95 l1 40 93 0 c86 0 93 2
94 20 2 19 -4 20 -93 20 l-94 0 -1 55 c0 30 -1 71 -1 90 0 19 1 48 1 65 l1 29
127 3 c109 3 126 5 129 20 2 20 -54 25 -226 20z"/>
<path d="M3046 2270 l-69 -5 1 -285 c0 -157 1 -291 1 -297 1 -10 41 -13 166
-13 158 0 165 1 165 20 0 22 -5 23 -145 21 -118 -1 -111 -9 -111 122 l1 112
90 1 c83 2 90 3 93 23 4 23 -2 24 -120 22 -39 -1 -59 3 -60 12 0 6 -2 60 -2
120 l-2 107 128 0 c121 0 128 1 128 20 0 16 -7 20 -32 21 -18 0 -62 1 -98 2
-36 1 -96 0 -134 -3z"/>
<path d="M6080 2270 c0 -3 7 -16 16 -28 8 -12 21 -32 27 -45 7 -12 43 -73 80
-134 l68 -113 -1 -102 c-2 -192 -5 -178 35 -178 19 0 36 3 36 8 1 4 2 68 3
142 l1 135 54 100 c29 55 69 127 87 160 33 60 33 60 10 61 -19 1 -34 -19 -96
-132 -40 -74 -75 -132 -77 -130 -2 2 -33 52 -68 112 -87 147 -88 148 -135 149
-22 1 -40 -2 -40 -5z"/>
<path d="M224 2223 c-10 -27 -19 -50 -20 -53 0 -3 -9 -23 -18 -45 -9 -22 -35
-83 -56 -135 -21 -52 -59 -143 -83 -202 -25 -59 -42 -109 -39 -112 24 -25 41
5 130 222 107 262 108 264 118 237 6 -18 60 -158 145 -377 l34 -88 38 0 c39 0
46 12 28 48 -15 28 -28 61 -81 202 -52 137 -56 147 -83 210 -8 19 -23 59 -33
88 -14 41 -22 52 -40 52 -16 0 -26 -11 -40 -47z"/>
<path d="M1293 2250 c-62 -37 -85 -102 -59 -164 14 -33 61 -83 91 -96 29 -13
95 -68 113 -95 59 -86 6 -196 -87 -181 -14 2 -31 5 -37 5 -18 2 -84 62 -84 77
0 8 -3 14 -7 15 -5 0 -16 2 -25 4 -48 9 23 -94 85 -124 126 -61 262 27 252
163 -6 74 -41 121 -140 186 -101 66 -125 113 -86 161 14 18 29 24 61 24 37 0
47 -5 75 -39 26 -32 33 -35 38 -21 10 25 9 28 -16 55 -48 54 -116 66 -174 30z"/>
<path d="M1630 2250 c0 -22 9 -23 138 -21 l62 1 0 -280 0 -280 38 0 38 0 0
271 c-1 149 1 275 4 279 3 5 25 8 50 8 142 0 150 1 150 22 0 19 -7 20 -240 20
-233 0 -240 -1 -240 -20z"/>
<path d="M2284 1973 l1 -298 37 -3 37 -3 0 103 c0 57 0 120 0 141 l1 37 162
-2 163 -3 0 -137 -1 -138 38 0 c33 0 38 3 38 23 1 37 1 499 1 540 -1 36 -2 37
-39 37 l-38 0 1 -127 c1 -71 -1 -133 -3 -140 -3 -9 -48 -12 -164 -11 l-160 0
4 29 c3 16 2 29 -2 29 -8 0 -4 86 5 100 3 6 3 10 -2 10 -4 0 -7 25 -6 55 l1
55 -37 0 -38 0 1 -297z"/>
<path d="M3490 2248 c0 -23 2 -23 100 -20 l100 2 0 -280 0 -280 38 0 37 0 0
278 0 277 90 3 c103 3 115 6 115 27 0 13 -31 15 -240 15 l-240 0 0 -22z"/>
<path d="M4144 1970 l0 -300 38 0 38 0 0 300 0 300 -38 0 -38 0 0 -300z"/>
<path d="M5599 2258 c-4 -69 -3 -85 5 -81 5 4 6 1 1 -6 -9 -16 -12 -141 -3
-141 4 0 5 -7 2 -15 -10 -24 -11 -308 -2 -327 8 -16 25 -18 143 -18 161 0 200
12 241 72 55 79 28 190 -58 234 l-30 16 20 21 c66 72 33 204 -59 241 -50 20
-259 23 -260 4z m216 -42 c67 -28 90 -109 49 -169 -13 -20 -34 -39 -46 -43
-27 -9 -137 -13 -139 -5 -7 32 -4 209 4 219 13 16 90 15 132 -2z m70 -280 c26
-9 65 -66 65 -94 0 -13 -7 -38 -15 -58 -21 -50 -71 -70 -176 -69 l-83 1 -2
116 -1 117 46 3 c51 3 135 -5 166 -16z"/>
<path d="M7137 2258 c5 -7 21 -41 36 -75 29 -69 29 -68 2 -441 -5 -71 -5 -73
17 -70 16 2 22 11 23 33 1 17 6 84 10 150 4 66 8 132 8 148 0 15 2 27 4 27 4
0 98 -200 108 -230 1 -3 15 -33 30 -67 35 -77 56 -82 84 -20 10 23 49 117 87
209 37 92 69 166 71 165 1 -2 5 -23 7 -48 3 -24 7 -64 10 -89 3 -25 8 -67 11
-95 12 -96 16 -140 15 -162 0 -20 5 -23 41 -23 l40 0 -6 53 c-3 28 -7 68 -9
87 -6 52 -16 150 -21 195 -18 163 -22 196 -24 243 -1 14 -7 22 -19 22 -19 0
-25 -12 -77 -140 -14 -36 -30 -74 -35 -85 -5 -11 -19 -45 -30 -75 -12 -30 -29
-68 -38 -85 -9 -16 -16 -32 -15 -35 0 -3 -3 -14 -7 -25 -4 -11 -10 -27 -12
-35 -4 -9 -15 5 -31 40 -13 30 -39 87 -57 125 -17 39 -50 111 -72 160 -74 164
-67 155 -116 155 -34 0 -42 -3 -35 -12z"/>
<path d="M8147 2253 c-7 -24 -103 -259 -122 -300 -8 -17 -15 -36 -15 -41 0 -6
-6 -23 -14 -39 -17 -33 -36 -77 -65 -150 l-21 -53 23 0 c19 0 29 16 66 108 24
59 51 125 61 147 9 22 24 60 34 85 10 25 24 59 31 75 7 17 16 39 19 49 4 11
10 15 15 10 4 -5 39 -92 78 -194 114 -296 105 -280 152 -280 l40 0 -31 78
c-17 42 -37 91 -44 109 -8 17 -14 34 -14 38 0 4 -6 21 -14 38 -8 18 -33 82
-56 142 -23 61 -46 119 -50 130 -5 11 -12 30 -15 43 -8 27 -50 31 -58 5z"/>
<path d="M8601 1970 l1 -300 37 0 38 0 -1 131 c-1 72 2 136 5 141 11 18 55 12
101 -13 69 -39 128 -142 130 -230 1 -26 5 -29 34 -29 33 0 33 1 30 43 -4 51
-26 127 -38 127 -4 0 -8 6 -8 14 0 7 -20 33 -45 57 l-44 43 29 18 c59 35 81
73 85 143 3 52 -44 119 -98 143 -16 7 -75 12 -142 12 l-114 0 0 -300z m235
236 c36 -22 58 -79 48 -123 -6 -27 -58 -82 -79 -84 -43 -5 -112 -4 -120 2 -8
6 -12 141 -6 215 2 19 121 11 157 -10z"/>
<path d="M9190 1970 l0 -300 38 0 38 0 0 300 0 300 -38 0 -38 0 0 -300z"/>
<path d="M9697 2243 c-8 -16 -20 -46 -27 -68 -7 -22 -16 -44 -20 -50 -6 -9
-34 -76 -80 -195 -10 -25 -36 -90 -59 -144 -23 -55 -41 -103 -41 -108 0 -16
41 -8 46 10 4 9 12 31 20 49 8 17 14 34 14 37 0 3 9 25 20 49 10 23 29 67 40
97 12 30 27 69 35 85 7 17 23 56 36 87 13 32 26 58 29 58 3 0 46 -107 96 -238
l91 -237 41 -3 c23 -2 42 -1 42 2 0 5 -12 37 -35 91 -7 17 -20 48 -28 70 -22
57 -68 175 -82 210 -7 17 -29 74 -50 128 -40 106 -62 122 -88 70z"/>
</g>
</svg>
