<svg viewBox="0 0 1000 1000" xmlns="http://www.w3.org/2000/svg">
    <g transform="translate(-0.000811, 0.003119)">
        <path d="M292.920811,3.49688059 C239.720811,6.00688059 203.390811,14.4968806 171.630811,26.9768806 C138.760811,39.7868806 110.900811,56.9768806 83.1808108,84.7968806 C55.4608108,112.616881 38.3908108,140.496881 25.6708108,173.416881 C13.3608108,205.246881 5.02081076,241.606881 2.67081076,294.836881 C0.32081076,348.066881 -0.19918924,365.176881 0.0608107604,500.956881 C0.32081076,636.736881 0.92081076,653.756881 3.50081076,707.096881 C6.04081076,760.286881 14.5008108,796.606881 26.9808108,828.376881 C39.8108108,861.246881 56.9808108,889.096881 84.8108108,916.826881 C112.640811,944.556881 140.500811,961.586881 173.500811,974.326881 C205.300811,986.616881 241.670811,994.996881 294.890811,997.326881 C348.110811,999.656881 365.240811,1000.19688 500.980811,999.936881 C636.720811,999.676881 653.810811,999.076881 707.140811,996.546881 C760.470811,994.016881 796.600811,985.496881 828.380811,973.076881 C861.250811,960.216881 889.120811,943.076881 916.830811,915.236881 C944.540811,887.396881 961.600811,859.496881 974.310811,826.556881 C986.630811,794.756881 995.000811,758.386881 997.310811,705.206881 C999.640811,651.836881 1000.19081,634.796881 999.930811,499.036881 C999.670811,363.276881 999.060811,346.256881 996.530811,292.936881 C994.000811,239.616881 985.530811,203.406881 973.060811,171.616881 C960.210811,138.746881 943.060811,110.916881 915.240811,83.1668806 C887.420811,55.4168806 859.500811,38.3668806 826.570811,25.6868806 C794.750811,13.3768806 758.400811,4.98688059 705.180811,2.68688059 C651.960811,0.386880595 634.830811,-0.203119405 499.040811,0.0568805949 C363.250811,0.316880595 346.250811,0.896880595 292.920811,3.49688059 M298.760811,907.376881 C250.010811,905.256881 223.540811,897.156881 205.900811,890.376881 C182.540811,881.376881 165.900811,870.496881 148.320811,853.086881 C130.740811,835.676881 119.940811,818.976881 110.820811,795.666881 C103.970811,778.026881 95.7208108,751.586881 93.4408108,702.836881 C90.9608108,650.146881 90.4408108,634.326881 90.1508108,500.836881 C89.8608108,367.346881 90.3708108,351.546881 92.6808108,298.836881 C94.7608108,250.126881 102.910811,223.626881 109.680811,205.996881 C118.680811,182.606881 129.520811,165.996881 146.970811,148.426881 C164.420811,130.856881 181.070811,120.036881 204.400811,110.916881 C222.020811,104.036881 248.460811,95.8568806 297.190811,93.5368806 C349.920811,91.0368806 365.720811,90.5368806 499.190811,90.2468806 C632.660811,89.9568806 648.500811,90.4568806 701.250811,92.7768806 C749.960811,94.8968806 776.470811,102.966881 794.080811,109.776881 C817.450811,118.776881 834.080811,129.586881 851.650811,147.066881 C869.220811,164.546881 880.050811,181.136881 889.170811,204.516881 C896.060811,222.086881 904.240811,248.516881 906.540811,297.276881 C909.050811,350.006881 909.620811,365.816881 909.860811,499.276881 C910.100811,632.736881 909.630811,648.586881 907.320811,701.276881 C905.190811,750.026881 897.110811,776.506881 890.320811,794.166881 C881.320811,817.516881 870.470811,834.166881 853.010811,851.726881 C835.550811,869.286881 818.920811,880.106881 795.580811,889.226881 C777.980811,896.096881 751.510811,904.296881 702.820811,906.616881 C650.090811,909.096881 634.290811,909.616881 500.770811,909.906881 C367.250811,910.196881 351.500811,909.656881 298.770811,907.376881 M706.370725,232.766881 C706.411308,257.036383 721.06847,278.891385 743.506828,288.139656 C765.945185,297.387927 791.7452,292.207894 808.874857,275.015302 C826.004515,257.82271 831.089897,232.003872 821.759401,209.599581 C812.428905,187.19529 790.520299,172.618375 766.250811,172.66676 C733.121523,172.733093 706.315529,199.637573 706.370725,232.766881 M243.270335,500.496881 C243.550811,642.296881 358.710811,756.986881 500.480811,756.717356 C642.250811,756.446881 757.020811,641.296881 756.751286,499.496881 C756.480811,357.696881 641.290811,242.976881 499.500811,243.256369 C357.710811,243.536881 243.000811,358.716881 243.270335,500.496881 M333.330478,500.316881 C333.148738,408.267846 407.62156,333.499728 499.670594,333.317201 C591.719628,333.135341 666.487844,407.608066 666.670492,499.6571 C666.852471,591.706133 592.379844,666.474447 500.330811,666.657249 C456.125536,666.749797 413.694472,649.275647 382.374726,618.07968 C351.054979,586.883712 333.412943,544.522176 333.330478,500.316881"></path>
    </g>
</svg>