<svg viewBox="0 0 950 116" xmlns="http://www.w3.org/2000/svg">
    <g fill="#0F1F2B">
        <path d="M263.0475,0.26 C282.3975,25.58 301.0275,51.46 320.2175,76.91 C338.4575,52.56 356.4875,28.05 374.6675,3.65 C375.5475,2.5 376.4775,1.38 377.4075,0.27 C377.7275,38.52 377.5075,76.78 377.5175,115.03 C371.1275,115.12 364.7275,115.15 358.3375,115 C358.2175,95.7 358.5375,76.39 358.1775,57.09 C345.2075,73.77 333.0175,91.05 320.2175,107.86 C307.3775,91.05 295.1475,73.76 282.1075,57.11 C281.7375,76.4 282.0475,95.69 281.9475,114.99 C275.6075,115.15 269.2675,115.13 262.9275,115.02 C262.9575,76.77 262.7075,38.51 263.0475,0.26 Z" ></path>
        <path d="M843.2575,115.04 C860.8475,76.66 878.4475,38.29 896.2375,0 C913.9975,38.26 931.5775,76.62 949.0275,115.03 C942.1075,115.14 935.1875,115.13 928.2675,115 C924.7175,107.18 921.4175,99.25 917.8675,91.43 C903.4475,91.47 889.0275,91.43 874.6075,91.46 C871.0975,99.3 867.7675,107.23 864.2075,115.05 C857.2175,115.11 850.2375,115.13 843.2575,115.04 M881.6375,75.89 C891.4075,75.94 901.1875,75.9 910.9575,75.91 C906.0675,64.87 901.3075,53.78 896.3075,42.78 C891.1275,53.68 886.4475,64.82 881.6375,75.89 Z" ></path>
        <path d="M0.0375,4.86 C6.3575,4.8 12.6875,4.8 19.0075,4.87 C19.0675,36.37 18.9775,67.88 19.0575,99.38 C36.0175,99.48 52.9775,99.41 69.9375,99.41 C69.9575,104.6 69.9675,109.8 69.9375,115 C46.6375,115.15 23.3375,115.15 0.0375,115 C-0.0125,78.28 -0.0125,41.57 0.0375,4.86 Z" ></path>
        <path d="M115.5375,4.91 C121.8875,4.77 128.2375,4.81 134.5875,4.86 C134.6875,28.93 134.6075,53 134.6175,77.07 C134.5375,81.51 135.7075,86.11 138.6975,89.5 C143.1275,94.56 149.8975,96.81 156.4075,97.57 C164.5875,98.38 173.3975,96.95 180.1175,91.95 C184.7475,88.54 186.7975,82.65 186.6475,77.04 C186.6375,53 186.6475,28.97 186.6375,4.93 C193.0375,4.76 199.4475,4.79 205.8475,4.9 C205.8675,28.96 205.8575,53.03 205.8575,77.09 C205.9575,85.03 203.5475,93.12 198.4375,99.29 C191.6275,107.77 181.1375,112.53 170.5875,114.27 C156.2975,116.41 140.7175,114.13 128.9975,105.23 C120.5075,99.01 115.4675,88.59 115.5475,78.09 C115.5075,53.7 115.5475,29.3 115.5375,4.91 Z" ></path>
        <path d="M435.7475,4.85 C460.0975,4.84 484.4475,4.74 508.7975,4.91 C508.8075,10.03 508.7975,15.15 508.8175,20.27 C490.8375,20.45 472.8575,20.32 454.8775,20.33 C454.7575,30.12 454.7475,39.92 454.8775,49.72 C469.6875,49.69 484.5075,49.65 499.3175,49.73 C499.3775,54.92 499.3775,60.1 499.3175,65.28 C484.4975,65.36 469.6775,65.32 454.8575,65.3 C454.7475,76.66 454.7975,88.03 454.8275,99.4 C472.8175,99.46 490.8075,99.41 508.7975,99.42 C508.8075,104.6 508.8075,109.78 508.8175,114.96 C484.4575,115.23 460.1075,115.05 435.7475,115.06 C435.6775,78.32 435.6775,41.59 435.7475,4.85 Z" ></path>
        <path d="M587.4275,13.24 C605.1875,3.16 627.5475,2.21 646.2975,10.14 C646.3975,16.86 646.4075,23.58 646.3075,30.3 C638.8275,25.5 630.2175,22.16 621.2275,22.19 C608.6075,21.63 595.7775,26.74 587.3875,36.25 C580.4675,43.83 576.8175,54.48 578.3775,64.7 C579.6275,73.93 584.8675,82.35 592.0875,88.13 C602.6675,96.78 617.3875,99.78 630.6075,96.52 C639.4675,94.59 647.1175,89.32 653.4275,82.98 C653.6975,90.67 653.5175,98.36 653.5475,106.05 C638.0475,115.15 618.8375,117.37 601.5875,112.52 C588.1975,108.81 576.1475,100.41 568.1575,89.04 C560.3175,77.84 557.1075,63.41 559.9575,50 C562.9675,34.41 573.7775,21.01 587.4275,13.24 Z" ></path>
        <path d="M730.1075,13.96 C748.0275,3.24 771.0175,1.98 790.1675,10.14 C790.3975,16.85 790.3275,23.57 790.2475,30.28 C782.7675,25.53 774.1975,22.16 765.2275,22.19 C752.8475,21.63 740.2475,26.51 731.8275,35.68 C724.5375,43.37 720.6475,54.39 722.3375,64.94 C723.7175,74.57 729.4275,83.28 737.1775,89.04 C751.7675,100.19 773.3975,100.71 788.5575,90.39 C791.8175,88.24 794.6175,85.5 797.4175,82.79 C797.5675,90.54 797.4675,98.29 797.4775,106.04 C781.7775,115.27 762.2575,117.43 744.8275,112.32 C730.8175,108.25 718.2875,99.05 710.5275,86.66 C703.4375,75.32 701.0875,61.13 704.2975,48.13 C707.6575,33.78 717.6075,21.5 730.1075,13.96 Z" ></path>
    </g>
</svg>