<svg viewBox="0 0 1237 508" xmlns="http://www.w3.org/2000/svg" >
    <g id="inmode" fill-rule="nonzero">
        <g transform="translate(0.000000, 364.302235)" fill="#0D1F2B">
            <path d="M1149.59513,6.24 C1178.56513,6.23 1207.52513,6.22 1236.49513,6.24 C1236.49513,12.34 1236.49513,18.44 1236.49513,24.54 C1215.08513,24.54 1193.68513,24.53 1172.28513,24.54 C1172.28513,36.13 1172.28513,47.72 1172.28513,59.31 C1189.92513,59.31 1207.56513,59.29 1225.20513,59.32 C1225.20513,65.49 1225.20513,71.66 1225.19513,77.83 C1207.55513,77.85 1189.91513,77.83 1172.28513,77.84 C1172.29513,91.3 1172.27513,104.76 1172.29513,118.22 C1193.69513,118.21 1215.09513,118.2 1236.49513,118.22 C1236.48513,124.41 1236.52513,130.61 1236.46513,136.8 C1207.51513,136.81 1178.56513,136.81 1149.61513,136.8 C1149.57513,93.28 1149.60513,49.76 1149.59513,6.24 Z" ></path>
            <path d="M920.095132,6.24 C931.065132,6.22 942.025132,6.24 952.995132,6.23 C965.085132,6.02 977.335132,7.64 988.585132,12.23 C1004.48513,18.25 1017.55513,31.44 1023.03513,47.59 C1028.14513,62.56 1028.23513,79.26 1023.38513,94.32 C1018.35513,110.06 1006.17513,123.2 991.015132,129.71 C979.695132,134.66 967.285132,136.57 954.985132,136.77 C943.365132,136.87 931.755132,136.78 920.135132,136.81 C920.045132,93.28 920.125132,49.76 920.095132,6.24 M942.735132,26.59 C942.715132,56.49 942.735132,86.39 942.725132,116.29 C953.205132,116.3 963.915132,116.81 974.095132,113.79 C983.955132,111.08 993.195132,104.99 998.265132,95.93 C1004.68513,84.52 1005.59513,70.57 1002.65513,57.98 C1000.21513,47.47 993.345132,37.99 983.735132,32.95 C971.245132,26.08 956.545132,26.47 942.735132,26.59 Z" ></path>
            <path d="M710.505132,7.39 C728.695132,4.25 748.065132,7.37 764.025132,16.79 C774.345132,22.68 783.025132,31.36 788.895132,41.69 C796.245132,54.53 798.635132,70.13 795.335132,84.56 C791.935132,99.56 782.695132,113.03 770.205132,121.96 C743.205132,142.19 702.625132,141.6 676.395132,120.31 C664.835132,111.22 656.125132,98.26 653.145132,83.78 C649.375132,66.42 653.935132,47.53 665.165132,33.78 C676.165132,19.56 692.915132,10.44 710.505132,7.39 M715.505132,27.36 C703.235132,29.32 691.585132,35.73 683.845132,45.5 C677.705132,53.1 674.195132,62.88 674.575132,72.68 C674.795132,83.95 680.205132,94.77 688.415132,102.38 C699.865132,113.27 716.495132,118.01 732.045132,115.74 C746.105132,113.8 759.505132,105.96 767.295132,93.97 C772.945132,85.42 775.355132,74.7 773.515132,64.59 C771.905132,55.1 766.735132,46.41 759.635132,40 C747.925132,29.25 731.095132,24.73 715.505132,27.36 Z" ></path>
            <path d="M392.215132,0.15 C414.935132,30.66 437.675132,61.15 460.415132,91.65 C483.135132,61.15 505.895132,30.67 528.605132,0.14 C528.605132,45.7 528.645132,91.25 528.585132,136.8 C520.955132,136.81 513.335132,136.81 505.715132,136.8 C505.675132,113.7 505.725132,90.6 505.695132,67.5 C490.605132,87.78 475.475132,108.02 460.425132,128.32 C445.265132,108.03 430.075132,87.76 414.925132,67.46 C414.875132,90.58 414.985132,113.69 414.875132,136.81 C407.335132,136.81 399.805132,136.81 392.265132,136.81 C392.185132,91.26 392.285132,45.7 392.215132,0.15 Z" ></path>
            <path d="M150.385132,5.68434189e-14 C180.715132,29.98 211.095132,59.91 241.425132,89.9 C241.455132,62.01 241.415132,34.12 241.445132,6.23 C249.055132,6.24 256.665132,6.22 264.285132,6.24 C264.285132,51.73 264.305132,97.22 264.275132,142.71 C233.895132,112.75 203.465132,82.83 173.095132,52.86 C172.995132,80.85 173.295132,108.85 172.945132,136.83 C165.435132,136.77 157.925132,136.83 150.415132,136.8 C150.345132,91.2 150.395132,45.6 150.385132,5.68434189e-14 Z" ></path>
            <path d="M0.0151321549,6.23 C7.56513215,6.22 15.1051322,6.24 22.6551322,6.23 C22.6751322,49.75 22.6951322,93.28 22.6451322,136.8 C15.1151322,136.81 7.59513215,136.8 0.0651321549,136.81 C-0.0648678451,93.29 0.0451321549,49.76 0.0151321549,6.23 Z" ></path>
        </g>
        <g id="icon" transform="translate(381.076190, -0.000000)">
            <path d="M233.178943,1.14223526 C235.698943,-0.487764745 239.048943,-0.327764745 241.518943,1.33223526 C279.538943,23.3322353 317.608943,45.2622353 355.618943,67.2722353 C358.048943,68.5422353 359.519624,71.2222353 359.458943,73.9422353 C359.519624,117.652235 359.448943,161.362235 359.498943,205.062235 C359.688943,208.052235 358.578943,211.332235 355.788943,212.792235 C344.648943,219.212235 333.418943,225.512235 322.248943,231.892235 C317.378943,229.032235 312.458943,226.282235 307.608943,223.412235 C319.998943,216.362235 332.388943,209.322235 344.768943,202.252235 C344.748943,160.802235 344.768943,119.352235 344.758943,77.9122353 C308.898943,57.1922353 273.028943,36.4822353 237.168943,15.7622353 C227.758943,21.2122353 218.348943,26.6522353 208.928943,32.0722353 C204.038943,29.2622353 199.158943,26.4322353 194.278943,23.6222353 C207.238943,16.1222353 220.208943,8.63223526 233.178943,1.14223526 Z"  fill="#A0A2A2"></path>
            <path d="M119.038943,67.1122353 C130.238943,61.0322353 141.448943,54.9522353 152.688943,48.9322353 C157.568943,51.7322353 162.428943,54.5622353 167.308943,57.3422353 C154.768943,64.2922353 142.128943,71.0522353 129.558943,77.9422353 C129.548943,119.372235 129.558943,160.792235 129.548943,202.222235 C165.398943,222.992235 201.308943,243.652235 237.148943,264.422235 C246.878943,258.972235 256.588943,253.492235 266.318943,248.042235 C271.198943,250.872235 276.068943,253.682235 280.958943,256.482235 C267.658943,264.052235 254.328943,271.592235 240.998943,279.132235 C238.538943,280.642235 235.368943,280.472235 232.968943,278.922235 C195.398943,257.202235 157.828943,235.502235 120.238943,213.812235 C117.218943,212.462235 114.748943,209.662235 114.878943,206.192235 C114.768943,162.432235 114.858943,118.672235 114.828943,74.9122353 C114.648943,71.7722353 116.078943,68.4822353 119.038943,67.1122353 Z"  fill="#A0A2A2"></path>
            <path d="M118.148943,1.19223526 C120.698943,-0.457764745 124.048943,-0.337764745 126.558943,1.33223526 C163.428943,22.6322353 200.298943,43.9222353 237.158943,65.2322353 C246.758943,59.8222353 256.318943,54.3322353 265.918943,48.9222353 C270.808943,51.7322353 275.678943,54.5722353 280.578943,57.3722353 C268.558943,64.2322353 256.528943,71.0722353 244.508943,77.9322353 C244.478943,119.362235 244.508943,160.792235 244.498943,202.222235 C280.338943,222.982235 316.248943,243.652235 352.088943,264.412235 C387.978943,243.782235 423.738943,222.932235 459.668943,202.372235 C459.878943,160.902235 459.718943,119.422235 459.758943,77.9522353 C423.888943,57.2122353 388.008943,36.4822353 352.118943,15.7822353 C343.298943,20.7922353 334.458943,25.7622353 325.658943,30.8122353 C324.648943,31.2322353 323.568943,32.3622353 322.478943,31.5122353 C318.008943,29.0722353 313.678943,26.4122353 309.268943,23.8722353 C322.208943,16.2322353 335.208943,8.68223526 348.198943,1.12223526 C350.738943,-0.517764745 354.068943,-0.267764745 356.548943,1.37223526 C393.098943,22.5122353 429.658943,43.6322353 466.228943,64.7322353 C469.858943,66.7422353 474.848943,69.0122353 474.348943,74.0222353 C474.368943,118.022235 474.358943,162.022235 474.358943,206.022235 C474.618943,209.062235 472.778943,211.872235 470.098943,213.202235 C432.048943,235.162235 394.018943,257.172235 355.958943,279.102235 C353.508943,280.642235 350.338943,280.482235 347.948943,278.922235 C311.008943,257.612235 274.098943,236.252235 237.158943,214.952235 C227.408943,220.602235 217.658943,226.242235 207.908943,231.892235 C203.128943,229.142235 198.378943,226.322235 193.558943,223.652235 C194.688943,222.732235 195.838943,221.822235 197.138943,221.132235 C207.328943,215.352235 217.398943,209.372235 227.588943,203.602235 C228.468943,202.942235 230.128943,202.542235 229.828943,201.092235 C229.868943,160.042235 229.838943,118.982235 229.838943,77.9322353 C193.978943,57.1922353 158.098943,36.4922353 122.228943,15.7722353 C86.3489426,36.4922353 50.4689426,57.2022353 14.6089426,77.9422353 C14.5789426,119.372235 14.6089426,160.792235 14.5889426,202.212235 C50.4489426,222.972235 86.3489426,243.682235 122.228943,264.402235 C131.728943,258.762235 141.198943,253.052235 150.728943,247.432235 C155.538943,250.292235 160.438943,253.012235 165.258943,255.882235 C152.878943,263.352235 140.348943,270.592235 127.948943,278.042235 C125.818943,279.302235 123.428943,280.702235 120.858943,280.072235 C117.968943,279.242235 115.538943,277.392235 112.928943,275.982235 C77.8689426,255.722235 42.8089426,235.452235 7.73894256,215.222235 C4.95894256,213.512235 1.30894256,212.172235 0.308942564,208.732235 C-0.181057436,206.172235 0.0689425643,203.552235 0.0289425643,200.972235 C0.0489425643,158.612235 0.0289425643,116.262235 0.0389425643,73.9022353 C-0.201057436,71.0622353 1.53894256,68.4422353 3.99894256,67.1422353 C42.0389426,45.1522353 80.0989426,23.1722353 118.148943,1.19223526 Z"  fill="#0D1F2B"></path>
        </g>
    </g>
</svg>