<svg xmlns="http://www.w3.org/2000/svg" viewBox="0 0 113.35 26.31">
  <g fill="#e2007a">
    <path d="M16.55,25.88h10.03v-4.58h-4.91V.4h-5.12V25.88ZM38.44,.4h-5.36l-5.98,25.5h4.45l1.24-5.58h5.29l1,5.58h5.06L38.44,.4Zm-5.02,15.95l2.01-9.6,2.07,9.57-4.09,.03Z" />
    <path d="M43.83,.4h7.58l2.87,16.84L57.72,.4h6.94V25.88h-5.06V7.64l-4.13,18.24h-3.13l-4.13-18.28V25.88h-4.39V.4ZM109.7,15.02c3.37-2.31,3.39-4.89,3.39-7.48,0-5.32-3.55-7.14-7.16-7.14h-7.42V25.88h4.96v-9.77h1.77l2.87,9.79h5.22l-3.65-10.89Zm-6.22-3.25V4.45c1.79-.28,4.49-.22,4.49,3.87,0,1.95-.84,4.01-4.49,3.45" />
    <path d="M11.33,9.37h4.13S16.23-.4,8.36,.02C8.36,.02,.58-.24,.04,11.89c0,0-1.04,14.15,7.16,14.42,0,0,4.17,.38,5.68-3.23l.68,2.83h2.13V12.56h-7.5v3.93h3.03s.06,.38,.06,1.38c0,2.53-1.2,4.35-3.1,4.15-1.4-.14-3.1-1.75-3.1-8.85,0,0-.42-8.67,3.51-8.67,0-.04,3.13-.24,2.71,4.89M90.2,26.3c7.14,0,7.16-5.78,7.16-8.99V.4h-4.9V19.16c0,1.14-.16,2.83-2.45,2.83h-.42c-2.29,0-2.45-1.69-2.45-2.83V.4h-4.88V17.31c0,3.2,.02,8.99,7.16,8.99h.8Z" />
    <path d="M81.23,13.12c0,12.76-6.66,13.16-7.93,13.16s-7.93-.38-7.93-13.14S72.02,0,73.29,0s7.93,.36,7.93,13.12h0Zm-10.31-3.35l-.02,3.51,.02,3.39c0,2.81,.62,5.3,2.35,5.3s2.35-2.49,2.35-5.3l.02-3.39-.02-3.51c0-2.81-.62-5.3-2.35-5.3-1.74-.02-2.35,2.47-2.35,5.3Z" />
  </g>
</svg>