<svg viewBox="0 0 1194 594" xmlns="http://www.w3.org/2000/svg">
    <g id="arbonne" fill="#121212" transform="translate(0.000000, 359.587982)">
        <path d="M1171.39106,206.14 C1175.10106,206.24 1179.05106,205.62 1182.57106,207.11 C1186.38106,209.38 1184.93106,216.32 1180.15106,216.24 C1181.77106,218.6 1183.27106,221.03 1184.78106,223.49 C1183.51106,223.51 1182.25106,223.54 1181.02106,223.58 C1179.62106,221.16 1178.27106,218.72 1176.94106,216.28 C1176.44106,216.26 1175.43106,216.22 1174.92106,216.19 C1174.87106,218.63 1174.86106,221.07 1174.90106,223.52 C1173.71106,223.52 1172.54106,223.52 1171.39106,223.53 C1171.38106,217.73 1171.38106,211.93 1171.39106,206.14 M1174.87106,208.96 C1174.86106,210.44 1174.88106,211.94 1174.91106,213.45 C1177.14106,213.31 1181.09106,214.25 1181.28106,210.89 C1180.22106,208.37 1177.00106,209.12 1174.87106,208.96 Z" ></path>
        <path d="M1172.18106,200.35 C1179.15106,197.85 1187.95106,200.72 1191.51106,207.38 C1194.83106,213.65 1193.69106,222.45 1187.84106,226.85 C1180.59106,233.15 1167.75106,231.04 1163.35106,222.35 C1158.68106,214.34 1163.14106,202.79 1172.18106,200.35 M1174.21106,203.32 C1164.53106,205.69 1162.96106,220.56 1171.41106,225.37 C1177.86106,229.75 1187.59106,225.38 1188.82106,217.72 C1191.21106,209.36 1182.62106,200.55 1174.21106,203.32 Z" ></path>
        <path d="M1023.51106,74.5 C1037.02106,64.46 1054.20106,60.4 1070.84106,60.78 C1089.83106,60.83 1109.35106,67.09 1123.03106,80.66 C1136.56106,93.4 1143.52106,111.66 1145.75106,129.82 C1146.84106,137.49 1146.74106,145.24 1146.67106,152.96 C1104.15106,152.89 1061.63106,152.99 1019.11106,152.91 C1019.85106,163.49 1021.35106,174.21 1025.69106,183.98 C1031.15106,197.42 1043.00106,207.98 1056.89106,212.1 C1068.57106,215.53 1081.37106,214.96 1092.73106,210.59 C1100.29106,207.58 1107.69106,203.06 1111.97106,195.92 C1114.42106,192.13 1115.42106,187.67 1116.14106,183.29 C1125.21106,183.42 1134.29106,183.25 1143.36106,183.37 C1141.75106,192.25 1138.70106,201.03 1133.17106,208.26 C1122.63106,222.47 1105.45106,230.36 1088.32106,233.08 C1066.92106,236.06 1043.69106,233.6 1025.48106,221.17 C1009.70106,210.88 998.931061,193.97 994.791061,175.73 C992.521061,166.93 991.901061,157.83 991.531061,148.79 C991.661061,134.26 993.381061,119.5 998.961061,105.97 C1004.03106,93.48 1012.55106,82.38 1023.51106,74.5 M1029.74106,101.8 C1023.83106,111.16 1021.00106,122.1 1019.64106,132.99 C1052.72106,132.99 1085.79106,132.96 1118.87106,133 C1117.13106,118.26 1112.20106,102.91 1101.02106,92.57 C1091.67106,83.79 1078.49106,79.72 1065.80106,80.73 C1051.30106,81.35 1037.46106,89.56 1029.74106,101.8 Z" ></path>
        <path d="M854.291061,89.13 C865.691061,75.12 881.311061,63.18 899.771061,61.17 C912.941061,60 926.931061,61.36 938.631061,67.94 C949.051061,73.74 956.101061,84.37 959.041061,95.77 C963.061061,109.1 961.951061,123.13 962.091061,136.86 C962.101061,167.97 962.081061,199.08 962.101061,230.2 C953.281061,230.17 944.461061,230.23 935.641061,230.16 C935.641061,200.36 935.641061,170.57 935.641061,140.78 C935.371061,129.18 936.471061,117.41 934.081061,105.98 C932.601061,98.6 929.131061,91.21 922.671061,86.97 C914.161061,81.59 903.421061,81.09 893.741061,82.71 C877.541061,86.16 864.781061,97.88 854.301061,110.08 C854.241061,150.12 854.291061,190.17 854.281061,230.22 C845.451061,230.15 836.631061,230.24 827.811061,230.17 C827.841061,174.97 827.821061,119.78 827.821061,64.59 C836.641061,64.61 845.461061,64.56 854.281061,64.61 C854.271061,72.78 854.271061,80.96 854.291061,89.13 Z" ></path>
        <path d="M679.631061,89.22 C691.131061,74.99 707.041061,63.04 725.721061,61.09 C739.581061,60.01 754.421061,61.6 766.321061,69.33 C775.261061,75.04 781.151061,84.52 784.151061,94.53 C787.081061,104.33 787.741061,114.65 787.601061,124.83 C787.611061,159.95 787.601061,195.07 787.611061,230.19 C778.741061,230.19 769.881061,230.21 761.021061,230.18 C761.041061,193.07 761.041061,155.95 761.021061,118.84 C760.541061,109.14 759.171061,98.67 752.721061,90.97 C744.631061,82.08 731.431061,80.93 720.211061,82.48 C703.541061,85.66 690.371061,97.6 679.641061,110.05 C679.651061,150.1 679.661061,190.14 679.631061,230.19 C670.761061,230.2 661.901061,230.18 653.041061,230.2 C653.031061,174.99 653.001061,119.78 653.051061,64.57 C661.901061,64.61 670.751061,64.58 679.601061,64.59 C679.691061,72.8 679.641061,81.01 679.631061,89.22 Z" ></path>
        <path d="M533.351061,61.48 C549.801061,59.55 567.051061,61.26 582.091061,68.54 C597.541061,76.09 609.821061,89.71 615.931061,105.76 C622.571061,122.2 623.711061,140.3 622.681061,157.83 C621.541061,176.16 616.171061,194.92 604.091061,209.13 C593.171061,222.45 576.881061,230.82 559.921061,233.21 C539.541061,236.01 517.451061,233.4 500.271061,221.34 C485.101061,211.1 475.161061,194.43 471.081061,176.79 C467.251061,159.99 466.961061,142.45 469.621061,125.45 C472.291061,109.07 479.001061,92.77 491.221061,81.2 C502.291061,69.82 517.701061,63.28 533.351061,61.48 M535.251061,81.53 C519.141061,84.51 506.001061,97.28 500.681061,112.5 C495.221061,126.83 494.841061,142.43 495.561061,157.56 C496.741061,172.99 500.741061,189.37 512.101061,200.58 C528.491061,218.22 559.171061,218.94 576.721061,202.61 C588.841061,191.8 593.691061,175.29 595.071061,159.59 C596.071061,145.28 595.791061,130.61 591.581061,116.78 C588.151061,104.42 580.221061,93.13 569.061061,86.63 C558.981061,80.63 546.631061,79.45 535.251061,81.53 Z" ></path>
        <path d="M299.351061,0.02 C308.101061,-0.01 316.861061,-5.68434189e-14 325.621061,0.01 C325.661061,29.38 325.581061,58.75 325.661061,88.12 C334.201061,77.29 344.961061,67.6 358.371061,63.44 C372.371061,59.04 387.821061,60.19 401.511061,65.18 C417.821061,71.26 429.791061,85.59 436.101061,101.47 C443.451061,120.22 444.831061,140.82 443.061061,160.73 C441.121061,180.3 434.491061,200.25 420.371061,214.46 C411.101061,224.48 398.451061,231.32 384.951061,233.4 C369.951061,235.53 354.071061,233.66 340.721061,226.18 C335.111061,223.22 330.271061,219.08 325.621061,214.82 C325.621061,219.94 325.641061,225.06 325.621061,230.18 C316.861061,230.21 308.101061,230.2 299.331061,230.18 C299.371061,153.46 299.341061,76.74 299.351061,0.02 M356.151061,84.04 C343.341061,89.45 333.401061,99.89 325.601061,111.14 C325.631061,138.17 325.671061,165.2 325.581061,192.22 C338.631061,207.49 359.391061,217.02 379.591061,213.62 C392.401061,211.52 402.751061,201.8 408.181061,190.34 C415.431061,174.97 416.441061,157.56 416.181061,140.83 C415.731061,130.25 414.501061,119.58 410.981061,109.54 C407.511061,99.83 401.481061,90.56 392.351061,85.36 C381.401061,79.18 367.611061,79.25 356.151061,84.04 Z" ></path>
        <path d="M237.231061,64.19 C246.161061,60.15 256.281061,60.15 265.781061,61.78 C265.751061,70.45 265.811061,79.12 265.741061,87.8 C254.371061,85.99 242.151061,85.24 231.471061,90.31 C221.591061,94.83 213.981061,103.01 207.861061,111.79 C207.831061,151.25 207.821061,190.71 207.871061,230.17 C199.091061,230.22 190.311061,230.17 181.531061,230.2 C181.551061,174.99 181.561061,119.79 181.521061,64.59 C190.301061,64.59 199.081061,64.59 207.861061,64.59 C207.851061,73.84 207.791061,83.1 207.911061,92.36 C215.271061,80.9 224.451061,69.76 237.231061,64.19 Z" ></path>
        <path d="M23.8210612,73.85 C39.0810612,62.95 58.5910612,60.78 76.8510612,60.7899657 C93.4310612,60.82 110.821061,63.35 124.931061,72.66 C134.491061,78.9 139.281061,90.12 141.391061,100.94 C143.871061,112.74 143.131061,124.85 143.231061,136.83 C143.221061,167.95 143.251061,199.08 143.221061,230.2 C134.461061,230.18 125.711061,230.2 116.961061,230.2 C116.941061,223.59 116.921061,216.98 116.961061,210.38 C104.461061,223.45 87.1710612,231.42 69.2810612,233.45 C54.9410612,234.97 39.7110612,234.65 26.5510612,228.08 C13.6910612,222.06 3.03106115,210.24 0.711061153,195.95 C-1.22893885,183.41 0.661061153,169.79 8.11106115,159.26 C15.6110612,148.6 27.4110612,141.86 39.5610612,137.76 C64.4210612,129.34 91.0110612,129.6 116.931061,129.8 C116.991061,120.77 116.791061,111.68 115.361061,102.75 C114.081061,94.46 107.631061,87.78 100.131061,84.54 C92.1610612,81.16 83.3710612,80.81 74.8510612,80.51 C63.5610612,80.77 51.4110612,81.84 42.0410612,88.81 C35.4310612,93.46 32.0710612,101.42 31.3110612,109.27 C22.5710612,109.2 13.8310612,109.26 5.09106115,109.23 C6.04106115,95.54 12.3710612,81.84 23.8210612,73.85 M62.7310612,151.1 C52.5510612,153.26 42.1010612,157.05 34.8610612,164.86 C27.7410612,172.55 25.6610612,184.05 28.4010612,194.01 C30.3210612,201.24 36.0410612,207 42.7510612,210.02 C53.0410612,214.66 64.7710612,215.18 75.7710612,213.32 C91.0610612,210.53 105.931061,202.83 115.421061,190.29 C116.121061,189.27 117.101061,188.23 116.931061,186.91 C116.961061,174 116.931061,161.09 116.941061,148.18 C98.8610612,148.3 80.5510612,147.33 62.7310612,151.1 Z" ></path>
    </g>
    <g id="icon" fill="#121212" transform="translate(393.314970, 0.000000)">
        <path d="M27.6160908,17.5979816 C46.8160908,7.82798163 67.9260908,1.70798163 89.4360908,0.217981629 C101.376091,-0.152018371 113.566091,-0.472018371 125.136091,3.01798163 C142.806091,7.65798163 158.376091,19.5779816 167.366091,35.4879816 C173.216091,45.3379816 176.046091,56.5279816 178.806091,67.5479816 C181.796091,55.7479816 184.866091,43.7279816 191.526091,33.3579816 C200.876091,18.1279816 216.356091,6.96798163 233.696091,2.68798163 C245.036091,-0.512018371 256.916091,-0.122018371 268.576091,0.247981629 C289.946091,1.84798163 311.006091,7.82798163 330.036091,17.6679816 C326.426091,25.7179816 320.586091,32.7179816 313.386091,37.8079816 C299.596091,29.5779816 283.536091,25.7979816 267.606091,25.0079816 C253.406091,24.6979816 238.276091,26.7779816 226.666091,35.6179816 C214.046091,45.0679816 207.596091,60.4179816 204.386091,75.4279816 C201.506091,88.8979816 200.606091,102.737982 200.866091,116.487982 C219.216091,113.767982 237.886091,113.967982 256.306091,115.887982 C276.446091,118.077982 296.696091,122.587982 314.686091,132.207982 C326.606091,138.677982 337.446091,147.557982 344.846091,159.027982 C356.056091,175.867982 359.056091,196.977982 357.016091,216.797982 C355.326091,234.417982 348.556091,252.077982 335.686091,264.567982 C322.166091,278.367982 302.536091,284.667982 283.536091,284.868381 C268.006091,284.857982 252.106091,283.967982 237.466091,278.317982 C222.516091,272.817982 209.876091,262.087982 200.686091,249.207982 C190.826091,235.747982 184.366091,220.197982 178.816091,204.567982 C172.866091,221.497982 165.686091,238.297982 154.466091,252.467982 C144.706091,265.197982 131.126091,275.157982 115.706091,279.847982 C102.756091,284.037982 89.0160908,284.757982 75.5060908,284.868381 C58.4560908,284.917982 40.9560908,280.277982 27.4560908,269.537982 C13.0960908,258.417982 4.4560908,241.167982 1.4860908,223.467982 C-1.4839092,205.007982 -0.273909199,185.417982 7.5960908,168.257982 C14.8060908,152.577982 27.9260908,140.167982 43.0460908,132.147982 C65.9460908,120.037982 92.1160908,115.887982 117.716091,114.677982 C130.786091,114.047982 143.876091,114.617982 156.826091,116.497982 C156.866091,95.1079816 155.386091,72.7679816 145.566091,53.3579816 C139.656091,41.4179816 128.956091,31.8579816 116.086091,28.1079816 C98.1660908,22.9079816 78.8160908,24.5879816 61.1960908,30.1679816 C55.2660908,31.9579816 49.6660908,34.6479816 44.3460908,37.7679816 C36.9860908,32.8279816 31.1660908,25.6979816 27.6160908,17.5979816 M84.6360908,142.857982 C67.8860908,146.777982 51.1160908,154.057982 39.7060908,167.367982 C28.8760908,179.887982 24.8660908,197.127982 26.2860908,213.367982 C27.5260908,227.837982 34.3360908,242.097982 45.9360908,251.067982 C55.6460908,258.827982 68.1660908,262.597982 80.5160908,262.407982 C96.1260908,262.447982 112.046091,258.047982 124.386091,248.237982 C139.456091,236.177982 148.116091,217.907982 152.526091,199.467982 C157.466091,179.697982 157.776091,159.197982 157.446091,138.937982 C133.166091,137.037982 108.466091,137.367982 84.6360908,142.857982 M200.186091,138.957982 C199.696091,164.737982 200.586091,191.267982 210.166091,215.557982 C215.946091,230.327982 225.566091,244.107982 239.296091,252.447982 C252.776091,260.667982 269.106091,263.507982 284.706091,262.017982 C300.796091,260.367982 316.036091,250.977982 324.036091,236.807982 C332.736091,221.927982 333.376091,203.447982 328.746091,187.137982 C324.386091,172.337982 313.346091,160.197982 299.926091,152.917982 C281.166091,142.637982 259.486091,139.437982 238.396091,138.227982 C225.656091,137.297982 212.906091,138.137982 200.186091,138.957982 Z" ></path>
    </g>
</svg>