<svg viewBox="0 0 164 23" version="1.1" xmlns="http://www.w3.org/2000/svg">
    <g fill="#1D1D1B">
        <path d="M162.02,2.41999254 C162.2,2.41999254 162.3,2.33999254 162.3,2.17999254 L162.3,2.17999254 C162.3,2.01999254 162.2,1.95999254 162.02,1.95999254 L161.84,1.95999254 L161.84,2.41999254 L162.02,2.41999254 Z M161.3,1.53999254 L162.05,1.53999254 C162.55,1.53999254 162.83,1.73999254 162.83,2.14999254 L162.83,2.14999254 C162.842652,2.38206576 162.699766,2.59435442 162.48,2.66999254 L162.95,3.45999254 L162.39,3.45999254 L162,2.76999254 L161.86,2.76999254 L161.86,3.45999254 L161.32,3.45999254 L161.3,1.53999254 Z M163.63,2.53999254 C163.63,1.6508141 162.909178,0.929992542 162.02,0.929992542 C161.130822,0.929992542 160.41,1.6508141 160.41,2.53999254 C160.41,3.42917099 161.130822,4.14999254 162.02,4.14999254 C162.452007,4.16706567 162.871511,4.00293032 163.177225,3.69721709 C163.482938,3.39150385 163.647073,2.97199911 163.63,2.53999254 Z M160.02,2.53999254 C160.02,1.43542304 160.915431,0.539992542 162.02,0.539992542 C163.083429,0.567628198 163.928482,1.44247355 163.919269,2.50622215 C163.910056,3.56997075 163.049978,4.43004848 161.98623,4.43926129 C160.922481,4.4484741 160.047636,3.60342201 160.02,2.53999254 L160.02,2.53999254 Z M148.8,14.5399925 L148.8,14.3099925 C148.699994,12.2104129 149.486825,10.1654343 150.968373,8.67437703 C152.449921,7.18331979 154.489823,6.38342152 156.59,6.46999254 C160.08,6.46999254 163.31,7.99999254 163.69,12.3199925 L159.69,12.3199925 C159.63712,11.5685874 159.281584,10.8708054 158.70477,10.3863564 C158.127955,9.9019074 157.379243,9.67226583 156.63,9.74999254 C154.47,9.74999254 153.02,11.3599925 153.02,14.2499925 L153.02,14.4799925 C153.02,17.4799925 154.37,19.0699925 156.71,19.0699925 C157.525171,19.116271 158.325032,18.8348519 158.93164,18.2883417 C159.538247,17.7418314 159.901289,16.9755584 159.94,16.1599925 L163.72,16.1599925 C163.49,19.7399925 160.89,22.2199925 156.51,22.2199925 C152.13,22.2199925 148.75,19.4799925 148.75,14.5499925 L148.8,14.5399925 Z M142.28,21.8899925 L146.43,21.8899925 L146.43,6.84999254 L142.28,6.84999254 L142.28,21.8899925 Z M141.96,2.47999254 C141.91913,1.50749495 142.474556,0.608121254 143.362393,0.20916489 C144.250231,-0.189791474 145.291524,-0.00791509732 145.991554,0.668384356 C146.691583,1.34468381 146.909247,2.37908842 146.541134,3.28015143 C146.173021,4.18121444 145.293328,4.7673136 144.32,4.75999254 C143.701568,4.78170541 143.100873,4.55111177 142.655828,4.12115287 C142.210783,3.69119396 141.959619,3.09880571 141.96,2.47999254 Z M132.58,17.4199925 L132.58,9.77999254 L130.65,9.77999254 L130.65,6.77999254 L132.58,6.77999254 L132.58,3.51999254 L136.73,3.51999254 L136.73,6.77999254 L139.9,6.77999254 L139.9,9.77999254 L136.73,9.77999254 L136.73,17.0499925 C136.73,18.2599925 137.34,18.8399925 138.4,18.8399925 C138.944435,18.855412 139.486064,18.7566243 139.99,18.5499925 L139.99,21.7799925 C139.172245,22.056814 138.313254,22.1920881 137.45,22.1799925 C134.28,22.1799925 132.57,20.5699925 132.57,17.4199925 L132.58,17.4199925 Z M125.71,12.7199925 C125.57,10.4399925 124.41,9.34999254 122.42,9.34999254 C120.43,9.34999254 119.28,10.5899925 118.96,12.7199925 L125.71,12.7199925 Z M114.71,14.5399925 L114.71,14.3099925 C114.610583,12.215831 115.393412,10.1758617 116.868254,8.68581543 C118.343096,7.19576912 120.374929,6.39205854 122.47,6.46999254 C126.37,6.46999254 129.83,8.74999254 129.83,14.1399925 L129.83,15.2899925 L118.91,15.2899925 C119.02,17.7999925 120.38,19.2399925 122.66,19.2399925 C124.59,19.2399925 125.55,18.3999925 125.8,17.1399925 L129.8,17.1399925 C129.31,20.3999925 126.71,22.2099925 122.59,22.2099925 C118.03,22.2099925 114.71,19.3499925 114.71,14.5399925 L114.71,14.5399925 Z M106.2,17.4199925 L106.2,9.77999254 L104.27,9.77999254 L104.27,6.77999254 L106.2,6.77999254 L106.2,3.51999254 L110.35,3.51999254 L110.35,6.77999254 L113.5,6.77999254 L113.5,9.77999254 L110.33,9.77999254 L110.33,17.0499925 C110.33,18.2599925 110.94,18.8399925 112,18.8399925 C112.541107,18.8543079 113.079246,18.7555355 113.58,18.5499925 L113.58,21.7799925 C112.762292,22.0570048 111.903268,22.1922841 111.04,22.1799925 C107.87,22.1799925 106.16,20.5699925 106.16,17.4199925 L106.2,17.4199925 Z M90.39,17.2499925 L94.28,17.2499925 C94.45,18.6099925 95.12,19.3799925 96.93,19.3799925 C98.55,19.3799925 99.3,18.7699925 99.3,17.7399925 C99.3,16.7099925 98.4,16.2699925 96.24,15.9499925 C92.24,15.3399925 90.67,14.1899925 90.67,11.2499925 C90.67,8.10999254 93.56,6.54999254 96.67,6.54999254 C100.02,6.54999254 102.53,7.75999254 102.9,11.2199925 L99.06,11.2199925 C99.0183779,10.6526946 98.7371644,10.1299577 98.2867279,9.78258719 C97.8362914,9.43521667 97.2592508,9.29607961 96.7,9.39999254 C95.34,9.39999254 94.56,10.0399925 94.56,10.9599925 C94.56,11.8799925 95.28,12.2899925 97.47,12.5999925 C101.25,13.1499925 103.33,14.0999925 103.33,17.3299925 C103.33,20.5599925 100.96,22.3299925 96.98,22.3299925 C93,22.3299925 90.55,20.5399925 90.4,17.3299925 L90.39,17.2499925 Z M84.82,12.8099925 C84.68,10.5299925 83.52,9.43999254 81.53,9.43999254 C79.54,9.43999254 78.39,10.6799925 78.07,12.8099925 L84.82,12.8099925 Z M73.82,14.6299925 L73.82,14.3999925 C73.7205828,12.305831 74.5034123,10.2658617 75.9782541,8.77581543 C77.4530958,7.28576912 79.484929,6.48205854 81.58,6.55999254 C85.47,6.55999254 88.94,8.83999254 88.94,14.2299925 L88.94,15.3799925 L78.01,15.3799925 C78.13,17.8899925 79.48,19.3299925 81.76,19.3299925 C83.69,19.3299925 84.64,18.4899925 84.9,17.2299925 L88.9,17.2299925 C88.41,20.4899925 85.81,22.2999925 81.69,22.2999925 C77.13,22.2999925 73.81,19.4399925 73.81,14.6299925 L73.82,14.6299925 Z M68.02,14.5399925 L68.02,14.2499925 C68.02,11.3699925 66.66,9.63999254 64.33,9.63999254 C62,9.63999254 60.64,11.3099925 60.64,14.1899925 L60.64,14.4199925 C60.64,17.2999925 61.97,19.0299925 64.33,19.0299925 C66.69,19.0299925 68.02,17.2999925 68.02,14.4399925 L68.02,14.5399925 Z M56.36,14.5999925 L56.36,14.3699925 C56.36,9.63999254 59.79,6.55999254 64.36,6.55999254 C68.93,6.55999254 72.29,9.55999254 72.29,14.2899925 L72.29,14.5199925 C72.29,19.2799925 68.86,22.3099925 64.29,22.3099925 C59.72,22.3099925 56.36,19.3099925 56.36,14.6099925 L56.36,14.5999925 Z M41.99,17.2499925 L45.88,17.2499925 C46.05,18.6099925 46.72,19.3799925 48.54,19.3799925 C50.16,19.3799925 50.9,18.7699925 50.9,17.7399925 C50.9,16.7099925 50.01,16.2699925 47.84,15.9499925 C43.84,15.3399925 42.27,14.1899925 42.27,11.2499925 C42.27,8.10999254 45.16,6.54999254 48.27,6.54999254 C51.62,6.54999254 54.13,7.75999254 54.5,11.2199925 L50.66,11.2199925 C50.6187567,10.6505873 50.3361437,10.1259485 49.8833532,9.77823592 C49.4305627,9.43052336 48.8507595,9.29288489 48.29,9.39999254 C46.93,9.39999254 46.16,10.0399925 46.16,10.9599925 C46.16,11.8799925 46.88,12.2899925 49.07,12.5999925 C52.85,13.1499925 54.93,14.0999925 54.93,17.3299925 C54.93,20.5599925 52.56,22.3299925 48.58,22.3299925 C44.6,22.3299925 42.15,20.5399925 42,17.3299925 L41.99,17.2499925 Z M36.43,12.8099925 C36.28,10.5299925 35.13,9.43999254 33.14,9.43999254 C31.15,9.43999254 30,10.6799925 29.68,12.8099925 L36.43,12.8099925 Z M25.38,14.6299925 L25.38,14.3999925 C25.2805828,12.305831 26.0634123,10.2658617 27.5382541,8.77581543 C29.0130958,7.28576912 31.044929,6.48205854 33.14,6.55999254 C37.04,6.55999254 40.5,8.83999254 40.5,14.2299925 L40.5,15.3799925 L29.61,15.3799925 C29.73,17.8899925 31.08,19.3299925 33.36,19.3299925 C35.29,19.3299925 36.25,18.4899925 36.5,17.2299925 L40.5,17.2299925 C40.01,20.4899925 37.41,22.2999925 33.29,22.2999925 C28.73,22.2999925 25.41,19.4399925 25.41,14.6299925 L25.38,14.6299925 Z M0,6.84999254 L4.18,6.84999254 L4.18,9.15999254 C5.10489389,7.4838042 6.88617136,6.46207578 8.8,6.50999254 C10.6273691,6.36012627 12.337386,7.42431732 13.01,9.12999254 C14.1518408,7.45438012 16.0627398,6.46883772 18.09,6.50999254 C20.89,6.50999254 23.09,8.26999254 23.09,12.2799925 L23.09,21.9399925 L18.9,21.9399925 L18.9,12.7399925 C18.9,10.8099925 18.03,9.93999254 16.53,9.93999254 C15.7153812,9.90348659 14.9253201,10.2239153 14.366269,10.8175468 C13.8072179,11.4111784 13.5347265,12.2190271 13.62,13.0299925 L13.62,21.9399925 L9.5,21.9399925 L9.5,12.7399925 C9.5,10.8099925 8.6,9.93999254 7.13,9.93999254 C6.31538119,9.90348659 5.52532006,10.2239153 4.966269,10.8175468 C4.40721793,11.4111784 4.13472652,12.2190271 4.22,13.0299925 L4.22,21.9399925 L0,21.9399925 L0,6.84999254 Z" ></path>
    </g>
</svg>