<svg xmlns="http://www.w3.org/2000/svg" viewBox="0 0 143.99 39">
  <g>
    <path d="M142.29,38.35l-7.15-24.38c2.19-.7,4.38-2.01,5.51-3.79,1.34-2.1,1.55-5.24-.82-7.22-2.21-1.84-5.99-1.77-7.67-1.77h-8.6v.64h1.66V38.35h-1.64v.65h8.59v-.65h-1.64V1.83h1.62c4.9,.02,6.57,6.15,4.16,9.44-2.01,2.75-5.7,3.33-5.7,3.33l6.42,23.75h-1.73v.65h8.68v-.65h-1.69ZM110.77,1.18h-11.6v.64h1.64V38.35h-1.64v.65h12.83v-7.93h-.65v7.28h-5.21V15.42h2.97v4.58h.65V10.2h-.65v4.57h-2.97V1.83h5.21v7.29h.65V1.18h-1.23Zm-35.76,0v.64h1.64V38.35h-1.64v.65h12.83v-7.93h-.65v7.28h-5.22V1.83h1.64v-.64h-8.6Zm-26.8,0v7.93h.65V1.85h3.69V38.35h-1.64v.65h8.6v-.65h-1.64V1.85h3.69v7.26h.65V1.18h-14ZM28.47,15.17l1.61,9.59h-3.32s1.71-9.59,1.71-9.59Zm-4.78,23.18h-1.65v.65h4.03v-.65h-1.72l2.29-12.94h3.56l2.17,12.94h-1.78v.65h8.59v-.65h-1.5L30.76,0h-.31l-6.75,38.35h0ZM0,1.18v7.93H.65V1.85h3.69V38.35h-1.64v.65H11.3v-.65h-1.64V1.85h3.69v7.26h.65V1.18H0Z"/>
  </g>
</svg>