<svg viewBox="0 0 773 568" xmlns="http://www.w3.org/2000/svg">
    <g id="votiva" transform="translate(0.000000, 428.949146)" fill="#56B7B4">
        <path d="M649.74,132.55 C670.21,88.37 690.59,44.16 711.1,0 C731.48,44.19 751.86,88.37 772.24,132.56 C764.15,132.56 756.07,132.56 747.99,132.56 C744,123.52 740.01,114.48 736.04,105.44 C719.39,105.44 702.76,105.42 686.12,105.45 C682.14,114.49 678.16,123.53 674.18,132.56 C666.03,132.55 657.88,132.57 649.74,132.55 M694.15,87.56 C705.43,87.57 716.72,87.54 728,87.57 C722.38,74.82 716.74,62.09 711.09,49.35 C705.4,62.07 699.81,74.83 694.15,87.56 Z"></path>
        <path d="M513.26,5.95 C521.41,5.92 529.56,5.95 537.72,5.93 C550.91,33.67 564.06,61.42 577.26,89.15 C589.58,61.42 601.84,33.66 614.16,5.93 C622.18,5.95 630.19,5.91 638.21,5.95 C618.09,50.09 597.97,94.22 577.83,138.34 C556.31,94.21 534.8,50.07 513.26,5.95 Z"></path>
        <path d="M453.98,5.94 C461.35,5.94 468.73,5.93 476.1,5.94 C476.11,48.14 476.11,90.35 476.1,132.56 C468.73,132.56 461.36,132.55 453.99,132.57 C453.97,90.36 453.98,48.15 453.98,5.94 Z"></path>
        <path d="M316.35,5.94 C349.56,5.93 382.77,5.94 415.98,5.93 C415.98,11.89 415.98,17.85 415.98,23.81 C403.1,23.82 390.23,23.8 377.35,23.82 C377.36,60.07 377.35,96.31 377.35,132.56 C369.9,132.57 362.44,132.55 354.99,132.56 C354.97,96.31 354.99,60.06 354.98,23.81 C342.1,23.8 329.22,23.83 316.35,23.8 C316.36,17.84 316.35,11.89 316.35,5.94 Z"></path>
        <path d="M214.16,6.09 C230.49,4.95 247.27,8.84 261.04,17.81 C275.37,26.87 286.12,41.82 289.17,58.6 C291.67,71.8 289.35,85.82 282.78,97.55 C275.4,111.14 262.69,121.31 248.51,127.15 C230.95,134.12 210.81,134.41 193.07,127.9 C178.79,122.63 166.1,112.74 158.04,99.77 C149.97,86.83 147.3,70.64 150.92,55.81 C153.24,45.58 158.62,36.21 165.75,28.57 C178.1,15.07 196.05,7.37 214.16,6.09 M211.5,26.46 C193.22,29.11 176.13,42.78 172.29,61.28 C169.61,73.51 173.51,86.68 181.8,95.95 C192.77,108.57 210.41,114.53 226.86,112.19 C241.05,110.36 254.55,102.28 262.09,90 C267.64,81.11 269.46,69.98 266.87,59.81 C264.59,50.53 258.8,42.33 251.31,36.5 C240.22,27.76 225.38,24.22 211.5,26.46 Z" ></path>
        <path d="M0,5.94 C8.16,5.94 16.33,5.91 24.49,5.96 C37.63,33.7 50.8,61.43 64.01,89.15 C76.3,61.41 88.59,33.67 100.89,5.94 C108.91,5.93107438 116.94,5.93107438 124.96,5.94 C104.82,50.06 84.73,94.21 64.56,138.32 C43.04,94.19 21.52,50.07 0,5.94 Z"></path>
    </g>
    <g id="icon" transform="translate(239.454887, 0.000000)">
        <path d="M144.015113,0.419145775 C146.355113,-0.370854225 148.995113,-0.010854225 151.115113,1.21914577 C196.975113,27.6791458 242.815113,54.1591458 288.675113,80.6191458 C291.605113,82.1591458 293.515113,85.4091458 293.285113,88.7391458 C293.265113,141.759146 293.285113,194.779146 293.275113,247.799146 C293.405113,251.139146 291.205113,254.159146 288.305113,255.649146 C243.495113,281.499146 198.685113,307.359146 153.895113,333.249146 C150.595113,335.529146 146.165113,337.239146 142.405113,334.919146 C97.5451131,309.109146 52.7651131,283.159146 7.91511315,257.319146 C4.09511315,255.449146 -0.254886851,252.589146 0.0351131489,247.729146 C0.0051131489,194.759146 0.0351131489,141.779146 0.0151131489,88.8091458 C-0.184886851,85.5191458 1.61511315,82.2591458 4.52511315,80.7091458 C49.0751131,54.9691458 93.6351131,29.2591458 138.185113,3.52914577 C140.095113,2.44914577 141.935113,1.17914577 144.015113,0.419145775 M20.5451131,91.8391458 C19.5151131,92.6491458 17.3951131,92.9791458 17.6551131,94.6991458 C17.6451131,143.959146 17.6451131,193.229146 17.6551131,242.499146 C60.6451131,267.329146 103.645113,292.139146 146.635113,316.969146 C189.655113,292.189146 232.635113,267.329146 275.635113,242.519146 C275.685113,192.869146 275.615113,143.229146 275.665113,93.5791458 C232.685113,68.6991458 189.655113,43.8991458 146.645113,19.0691458 C104.615113,43.3391458 62.6051131,67.6391458 20.5451131,91.8391458 Z" fill="#0F1F2B"></path>
        <path d="M79.2351131,127.659146 C78.8451131,114.629146 82.8551131,101.359146 91.0151131,91.1191458 C101.065113,108.589146 111.565113,125.799146 122.425113,142.789146 C128.895113,153.199146 136.785113,163.089146 139.955113,175.169146 C143.995113,188.879146 142.135113,204.369146 134.205113,216.359146 C127.855113,225.849146 121.585113,235.399146 115.225113,244.879146 C108.595113,240.369146 102.655113,234.299146 99.9451131,226.609146 C97.7551131,220.579146 97.9151131,213.729146 100.565113,207.869146 C103.495113,201.499146 106.655113,195.239146 110.015113,189.079146 C103.615113,180.849146 97.1251131,172.689146 90.8651131,164.359146 C84.1251131,153.319146 79.5751131,140.679146 79.2351131,127.659146 Z" fill="#56B7B4"></path>
        <path d="M162.135113,156.339146 C176.135113,134.989146 189.555113,113.239146 202.325113,91.1291458 C211.335113,102.459146 215.265113,117.449146 213.855113,131.779146 C212.915113,141.979146 209.425113,151.809146 204.555113,160.779146 C202.275113,165.289146 198.815113,169.019146 195.815113,173.039146 C191.645113,178.379146 187.515113,183.759146 183.335113,189.099146 C186.645113,195.189146 189.775113,201.379146 192.685113,207.679146 C195.295113,213.359146 195.595113,220.019146 193.615113,225.949146 C190.935113,233.889146 184.985113,240.469146 177.925113,244.839146 C172.065113,235.579146 165.845113,226.549146 159.815113,217.399146 C153.055113,207.689146 150.215113,195.419146 151.665113,183.699146 C152.815113,173.889146 156.765113,164.569146 162.135113,156.339146 Z" fill="#56B7B4"></path>
    </g>
</svg>