<svg xmlns="http://www.w3.org/2000/svg" viewBox="0 0 328 72">
  <path d="M12.82,72h7.8L32.29,1.39h3.01V0h-9.97V1.39h5.1l-9.12,55.93L13.13,1.39h4.48V0H0V1.39H2.16L12.82,72Z" />
  <path d="M36.77,48.21l5.41-33.53,5.48,33.53h-10.89Zm-8.57,22.4v1.39h9.66v-1.39h-4.87l3.48-20.86h11.43l3.48,20.86h-4.56v1.39h17.69v-1.39h-2.16L50.67,0h-7.72l-11.74,70.61h-3.01Z" />
  <path d="M66.13,70.61v1.39h8.88v-1.39h-4.79V7.42l21.4,64.58h6.18V1.39h3.17V0h-9.73V1.39h4.71V50.68L78.95,0h-13.75V1.39h3.17V70.61h-2.24Z" />
  <path d="M102.97,70.61v1.39h17v-1.39h-2.94V1.39h2.94V0h-17V1.39h2.93V70.61h-2.93Z" />
  <path d="M130.86,70.61v1.39h17.85v-1.39h-3.4V1.39h6.49l4.25,20.24h1.39V0h-35.3V21.63h1.39L127.85,1.39h6.41V70.61h-3.4Z" />
  <path d="M167.94,70.61v1.39h17.84v-1.39h-3.4V38.32L190.88,1.39h2.55V0h-9.35V1.39h4.94l-7.65,32.99L171.72,1.39h4.71V0h-17.69V1.39h2.16l10.43,36.93v32.29h-3.4Z" />
  <path d="M203.86,70.61v1.39h18.46v-1.39h-4.4V35.23h6.8l2.32,9.04h1.39V24.41h-1.39l-2.32,9.12h-6.8V1.39h10.74l4.63,17.46h1.39V0h-30.82V1.39h2.94V70.61h-2.94Z" />
  <path d="M238.78,48.21l5.41-33.53,5.49,33.53h-10.89Zm-8.57,22.4v1.39h9.66v-1.39h-4.87l3.48-20.86h11.36l3.48,20.86h-4.56v1.39h17.69v-1.39h-2.16L252.68,0h-7.73l-11.74,70.61h-3.01Z" />
  <path d="M268.13,70.61v1.39h17.07v-1.39h-3.01V1.39h3.01V0h-17.07V1.39h3.01V70.61h-3.01Z" />
  <path d="M302.97,1.47c5.41,0,9.42,2.7,9.42,14.83v5.72c0,10.12-2.78,13.91-8.65,13.91h-2.32V1.47h1.55Zm-15.68,69.14v1.39h18.46v-1.39h-4.4V37.39h3.17l10.27,34.69h13.21v-1.39h-1.93l-11.35-36.46c2.24-1.24,8.88-5.33,8.88-15.45,0-13.29-8.81-18.77-20.55-18.77h-15.76V1.39h3.01V70.61h-3.01Z" />
</svg>