<svg viewBox="0 0 917 562" xmlns="http://www.w3.org/2000/svg">
    <g id="optimas" fill-rule="nonzero">
        <g transform="translate(0.000000, 428.810000)" fill="#58B6B3">
            <path d="M848.14,16.37 C857.19,6.53 871.6,2.74 884.56,4.96 C894.36,6.57 903.02,12.2 909.83,19.25 C904.06,23.47 898.25,27.62 892.47,31.81 C889.44,29.04 886.2,26.25 882.15,25.14 C876.95,23.7 870.91,24.35 866.62,27.81 C864.49,29.5 862.88,32.18 863.35,34.99 C864,38.9 867.1,41.71 869.93,44.21 C881.82,54.33 893.51,64.68 905.37,74.83 C911.54,80.29 915.94,87.83 917,96.06 L917,101.44 C916.22,108.7 912.56,115.43 907.31,120.43 C897.84,129.6 884.12,133.66 871.12,132.47 C857.19,131.58 844.33,124.04 835.28,113.64 C841.18,109.57 846.97,105.35 852.89,101.3 C856.42,105.18 860.47,108.78 865.45,110.68 C873.26,114.01 882.88,113.11 889.69,107.92 C892.62,105.62 895.12,102.12 894.82,98.22 C894.43,93.96 891.42,90.57 888.38,87.83 C877.09,78.1 865.94,68.22 854.48,58.69 C847.9,53.31 842.53,45.91 841.3,37.34 C840.14,29.77 842.93,21.9 848.14,16.37 Z" ></path>
            <path d="M741.63,0.08 C762.07,44.26 782.37,88.51 802.85,132.67 C794.75,132.71 786.66,132.68 778.56,132.69 C774.57,123.67 770.6,114.63 766.61,105.61 C749.94,105.56 733.27,105.61 716.6,105.58 C712.69,114.63 708.6,123.6 704.72,132.66 C696.56,132.73 688.39,132.66 680.23,132.7 C700.67,88.48 721.09,44.25 741.63,0.08 M741.61,49.38 C735.95,62.15 730.3,74.91 724.65,87.68 C735.95,87.7 747.25,87.68 758.55,87.69 C752.94,74.9 747.27,62.15 741.61,49.38 Z" ></path>
            <path d="M509.64,0 C531.75,29.55 553.77,59.17 575.88,88.73 C597.98,59.17 620.01,29.57 642.11,0.02 C642.15,44.23 642.1,88.45 642.13,132.67 C634.73,132.73 627.32,132.65 619.92,132.72 C619.81,110.33 619.93,87.94 619.86,65.55 C605.19,85.19 590.57,104.88 575.86,124.51 C561.16,104.89 546.49,85.25 531.77,65.64 C531.8,87.98 531.75,110.33 531.79,132.67 C524.39,132.72 517,132.68 509.6,132.69 C509.62,88.46 509.56,44.23 509.64,0 Z" ></path>
            <path d="M439.5,132.69 C439.5,90.43 439.49,48.17 439.5,5.91 C446.87,5.92 454.24,5.91 461.61,5.92 C461.63,48.18 461.62,90.43 461.62,132.69 C454.24,132.69 446.87,132.69 439.5,132.69 Z" ></path>
            <path d="M300.61,5.92 C333.87,5.91 367.13,5.91 400.39,5.92 C400.4,11.88 400.39,17.84 400.41,23.81 C387.48,23.81 374.55,23.81 361.62,23.81 C361.62,60.1 361.63,96.4 361.61,132.69 C354.2,132.69 346.79,132.69 339.38,132.69 C339.37,96.4 339.38,60.1 339.38,23.81 C326.45,23.81 313.52,23.81 300.6,23.81 C300.61,17.85 300.59,11.88 300.61,5.92 Z" ></path>
            <path d="M184.38,132.69 C184.38,90.43 184.37,48.18 184.39,5.92 C198.59,5.92 212.79,5.9 226.99,5.92 C238.32,6.03 250.11,8.88 258.97,16.25 C266.55,22.42 271.23,31.73 272.36,41.37 C273.91,53.46 271.25,66.71 262.72,75.81 C254.42,85.08 241.82,89.31 229.64,89.75 C221.93,89.9 214.22,89.76 206.5,89.81 C206.5,104.1 206.51,118.4 206.5,132.69 C199.13,132.69 191.76,132.69 184.38,132.69 M206.5,23.81 C206.5,39.8 206.5,55.8 206.5,71.79 C214,71.74 221.51,71.91 229.02,71.7 C236.3,71.38 244.23,69.02 248.62,62.78 C253.55,55.63 253.98,46.01 251.22,37.94 C248.79,30.52 241.58,25.72 234.1,24.53 C224.98,23.13 215.7,24.09 206.5,23.81 Z" ></path>
            <path d="M37.83,13.06 C56.1,4.51 77.72,3.68 96.69,10.45 C110.06,15.29 122.25,23.94 130.25,35.81 C138.99,48.29 142.62,64.26 139.91,79.28 C137.12,95.36 127.31,109.89 113.9,119.08 C87.21,138.29 47.6,137.03 22.48,115.67 C9.9,105.42 1.47,90.21 0,73.99 L0,65.32 C1.44,42.52 17.32,22.3 37.83,13.06 M60.46,26.8 C47.61,29.16 35.65,36.71 28.51,47.73 C23.43,55.5 21.14,65.08 22.39,74.3 C23.83,85.84 30.72,96.3 40.09,103.02 C50.88,110.96 64.9,114.11 78.1,112.15 C91.59,110.21 104.41,102.68 111.94,91.22 C117.64,82.79 119.87,72.09 117.96,62.1 C116.04,51.63 109.65,42.28 101.17,35.98 C89.73,27.29 74.51,24.09 60.46,26.8 Z" ></path>
        </g>
        <g id="icon" transform="translate(311.705430, 0.000000)">
            <path d="M130.61457,139.42 C131.23457,138.58 131.49457,137.23 132.63457,136.94 C135.46457,141.24 138.03457,145.72 140.83457,150.05 C134.15457,162.18 127.41457,174.28 120.70457,186.39 C118.06457,190.9 115.70457,195.72 115.18457,200.99 C113.58457,213 119.81457,225.63 130.39457,231.57 C141.28457,238.13 156.16457,236.82 165.79457,228.54 C173.77457,222.04 177.86457,211.46 176.82457,201.27 C181.47457,200.71 186.12457,200.22 190.77457,199.71 C191.76457,210.29 189.34457,221.23 183.25457,230 C175.55457,241.57 162.20457,249.07 148.33457,249.73 C135.64457,250.49 122.78457,245.51 113.88457,236.43 C103.99457,226.49 99.18457,211.74 101.44457,197.88 C102.26457,191.98 104.51457,186.38 107.47457,181.24 C115.19457,167.3 122.96457,153.39 130.61457,139.42 Z"  fill="#58B6B3"></path>
            <path d="M154.74457,109.52 C164.41457,102.73 176.74457,99.79 188.41457,101.85 C201.40457,103.92 213.16457,112.14 219.79457,123.47 C226.98457,135.54 227.91457,151.02 222.37457,163.91 C215.76457,179.73 199.51457,190.96 182.33457,191.25 C164.12457,191.31 145.91457,191.27 127.70457,191.27 C130.29457,186.56 132.92457,181.88 135.56457,177.21 C150.81457,177.23 166.05457,177.23 181.30457,177.22 C190.19457,177.18 198.91457,173.03 204.60457,166.21 C213.33457,156.19 214.37457,140.44 206.91457,129.42 C199.63457,117.73 184.04457,112.26 171.04457,116.86 C168.10457,117.77 165.45457,119.36 162.87457,120.98 C160.18457,117.14 157.45457,113.34 154.74457,109.52 Z"  fill="#58B6B3"></path>
            <path d="M75.09457,120.8 C82.20457,109.91 94.30457,102.44 107.24457,100.99 C121.93457,99.12 137.36457,105.09 146.90457,116.42 C150.55457,120.59 152.98457,125.61 155.72457,130.37 C163.13457,143.59 170.59457,156.77 177.99457,169.98 C172.60457,170.01 167.21457,170.02 161.83457,169.98 C155.32457,158.3 148.72457,146.68 142.20457,135.02 C139.52457,129.97 136.51457,124.9 131.87457,121.4 C121.13457,112.61 104.43457,112.5 93.62457,121.23 C82.67457,129.49 78.53457,145.39 84.18457,157.91 C87.10457,164.81 92.66457,170.43 99.37457,173.7 C97.53457,178.03 95.42457,182.23 93.44457,186.5 C82.59457,181.31 73.91457,171.76 70.05457,160.33 C65.51457,147.31 67.45457,132.27 75.09457,120.8 Z"  fill="#58B6B3"></path>
            <path d="M145.37457,0 L148.43457,0 C150.02457,0.62 151.59457,1.33 153.09457,2.17 C198.30457,28.32 243.57457,54.38 288.78457,80.51 C291.92457,82.13 293.69457,85.53 293.52457,89.02 C293.61457,141 293.49457,192.99 293.58457,244.98 C293.53457,247.78 293.50457,250.95 291.49457,253.15 C289.30457,255.48 286.29457,256.74 283.60457,258.35 C239.63457,283.72 195.67457,309.11 151.70457,334.47 C147.72457,337.18 142.84457,335.52 139.25457,333.01 C94.51457,307.08 49.68457,281.29 4.90456999,255.42 C1.43456999,253.68 -0.225430012,249.83 0.0245699875,246.07 C0.0645699875,193.71 0.00456998754,141.34 0.0545699875,88.98 C-0.115430012,85.54 1.64456999,82.19 4.71456999,80.56 C50.16457,54.29 95.65457,28.08 141.10457,1.81 C142.46457,1.09 143.90457,0.48 145.37457,0 M145.26457,19.85 C102.79457,44.4 60.29457,68.89 17.81457,93.42 C17.77457,143.08 17.81457,192.73 17.79457,242.39 C60.74457,267.27 103.78457,292.03 146.76457,316.87 C189.78457,292.07 232.81457,267.27 275.80457,242.39 C275.81457,192.78 275.73457,143.16 275.84457,93.55 C233.41457,68.84 190.77457,44.46 148.30457,19.82 C147.36457,19 146.20457,19.14 145.26457,19.85 Z"  fill="#0D1F2C"></path>
        </g>
    </g>
</svg>