<svg viewBox="0 0 550 91" xmlns="http://www.w3.org/2000/svg">
    <g id="forma" fill="#0D1F2C" fill-rule="nonzero">
        <path d="M335.233822,0 L335.333822,0 C350.473822,20.29 365.583822,40.61 380.743822,60.87 C395.743822,40.48 411.073822,20.32 426.163822,0 L426.613822,0 C426.093822,6.98 426.293822,13.99 426.273822,20.98 C426.263822,44.32 426.263822,67.66 426.273822,91 L411.133822,91 C411.113822,75.61 411.183822,60.23 411.093822,44.84 C401.043822,58.46 390.863822,71.98 380.813822,85.6 C370.753822,72.12 360.733822,58.6 350.563822,45.2 C350.453822,60.46 350.543822,75.73 350.513822,91 L335.233822,91 C335.233822,60.67 335.243822,30.33 335.233822,0 Z" ></path>
        <path d="M507.313822,0 L508.443822,0 C508.653822,1.45 509.113822,2.87 509.723822,4.21 C523.133822,33.11 536.383822,62.09 549.783822,91 L533.103822,91 C530.243822,84.77 527.523822,78.48 524.873822,72.16 C513.453822,72.13 502.043822,72.15 490.623822,72.15 C487.963822,78.48 485.213822,84.77 482.363822,91 L465.403822,91 C474.503822,72.17 482.993822,53.04 491.883822,34.11 C496.943822,22.7 502.723822,11.59 507.313822,0 M496.223822,59.91 C503.863822,59.8 511.503822,59.86 519.153822,59.87 C515.583822,51.08 511.513822,42.52 507.823822,33.79 C503.753822,42.4 500.073822,51.19 496.223822,59.91 Z" ></path>
        <path d="M99.7838216,16.89 C118.173822,-0.06 149.023822,-0.29 167.933822,15.97 C176.423822,23.53 182.443822,34.41 182.483822,45.96 C183.303822,59.68 176.003822,73.11 164.963822,81.01 C157.213822,86.92 147.713822,90.06 138.083822,91 L129.473822,91 C121.063822,89.6 112.553822,87.43 105.493822,82.43 C95.4538216,75.53 87.7738216,64.69 86.1638216,52.46 C84.4138216,39.31 89.9038216,25.64 99.7838216,16.89 M127.993822,18.17 C121.103822,19.39 114.433822,22.54 109.683822,27.76 C102.983822,34.11 99.7538216,44.01 101.853822,53.04 C103.023822,59.89 107.313822,65.91 112.793822,70.05 C125.693822,80.35 146.043822,79.54 158.013822,68.14 C166.013822,61.1 169.553822,49.25 165.963822,39.1 C163.973822,32.58 159.233822,27.25 153.743822,23.39 C146.293822,18.24 136.823822,16.91 127.993822,18.17 Z" ></path>
        <path d="M0.0538216251,3.8 C19.5038216,3.76 38.9538216,3.78 58.4038216,3.79 C58.4638216,7.94 58.4538216,12.1 58.4338216,16.25 C44.1038216,16.27 29.7638216,16.29 15.4238216,16.24 C15.4138216,23.94 15.4138216,31.64 15.4238216,39.35 C27.1238216,39.36 38.8338216,39.36 50.5338216,39.34 C50.5338216,43.45 50.5338216,47.55 50.5338216,51.65 C38.8338216,51.64 27.1238216,51.64 15.4238216,51.65 C15.3838216,64.77 15.4738216,77.88 15.3738216,91 L0.0438216251,91 C-0.00617837488,61.93 -0.0261783749,32.87 0.0538216251,3.8 Z" ></path>
        <path d="M225.663822,3.82 C235.743822,3.83 245.833822,3.62 255.903822,3.92 C264.243822,4.38 273.153822,6.56 279.013822,12.93 C287.703822,22.08 288.783822,37.05 282.593822,47.85 C279.363822,53.57 273.653822,57.31 267.673822,59.68 C276.293822,70.15 284.843822,80.68 293.643822,91 L276.403822,91 C268.183822,81.31 260.253822,71.38 252.103822,61.63 C248.433822,61.64 244.763822,61.63 241.103822,61.64 C241.133822,71.42 241.103822,81.21 241.113822,91 L225.663822,91 C225.663822,61.94 225.663822,32.88 225.663822,3.82 M240.913822,16.44 C240.853822,27.44 240.903822,38.44 240.883822,49.43 C249.533822,49.05 259.143822,50.99 266.793822,45.88 C272.153822,42.19 273.073822,35.02 272.203822,29.05 C271.743822,24.29 268.523822,19.93 264.083822,18.17 C256.723822,15.16 248.613822,16.95 240.913822,16.44 Z" ></path>
    </g>
</svg>