<svg viewBox="0 0 938 502" xmlns="http://www.w3.org/2000/svg">
    <g id="zo-skin-health" fill="#3A1B7A" transform="translate(0.000000, 411.711826)">
        <path d="M926.93,2.37817387 C930.56,2.36817387 934.2,2.36817387 937.85,2.39817387 C937.77,30.6781739 937.8,58.9581739 937.83,87.2381739 C934.19,87.3481739 930.55,87.3481739 926.93,87.3181739 C926.9,58.9981739 926.9,30.6881739 926.93,2.37817387 Z" ></path>
        <path d="M859.45,2.38817387 C865.32,2.33817387 871.2,2.37817387 877.07,2.37817387 C877.04,14.5181739 876.96,26.6481739 877.11,38.7881739 C891.4,38.7881739 905.69,38.7081739 919.98,38.8181739 C919.91,42.0081739 919.9,45.1981739 919.94,48.3781739 C905.65,48.4781739 891.35,48.3881739 877.06,48.4281739 C877,61.3881739 877.04,74.3481739 877.05,87.2981739 C873.5,87.3381739 869.95,87.3381739 866.41,87.2881739 C866.41,62.9281739 866.48,38.5681739 866.38,14.2081739 C865.26,9.75817387 861.57,6.41817387 859.45,2.38817387 Z" ></path>
        <path d="M786.53,2.38817387 C808.97,2.36817387 831.41,2.35817387 853.85,2.38817387 C853.81,5.34817387 853.81,8.31817387 853.83,11.2781739 C844.41,11.4381739 834.99,11.2781739 825.57,11.3781739 C825.65,36.6881739 825.6,61.9981739 825.59,87.3081739 C822.05,87.3381739 818.51,87.3381739 814.98,87.3081739 C814.97,61.9981739 814.93,36.6781739 815.01,11.3681739 C805.52,11.2881739 796.03,11.4381739 786.55,11.2781739 C786.55,8.31817387 786.55,5.34817387 786.53,2.38817387 Z" ></path>
        <path d="M739.26,2.35817387 C745.19,2.36817387 751.12,2.36817387 757.06,2.37817387 C756.98,27.7381739 757.03,53.0981739 757.03,78.4481739 C769.7,78.5081739 782.37,78.4481739 795.03,78.4781739 C794.99,81.4181739 794.98,84.3581739 794.99,87.2981739 C778.81,87.3481739 762.63,87.3681739 746.44,87.2881739 C746.5,63.9081739 746.4,40.5281739 746.5,17.1581739 C747.15,11.1981739 741.94,7.11817387 739.26,2.35817387 Z" ></path>
        <path d="M684,0.0181738721 C690.1,-0.0218261279 696.21,0.0181738721 702.32,0.00817387212 C712.89,29.0881739 723.35,58.2181739 733.92,87.3081739 C730.09,87.3481739 726.27,87.3681739 722.46,87.2081739 C713.95,62.7781739 705.44,38.3381739 696.72,13.9781739 C691.97,26.7681739 687.4,39.6281739 682.87,52.4981739 C689.55,52.5581739 696.23,52.5381739 702.91,52.5181739 C704.01,55.7181739 705.14,58.9181739 706.26,62.1281739 C697.34,62.1781739 688.41,62.0181739 679.49,62.2181739 C676.6,70.5281739 673.63,78.8081739 670.85,87.1481739 C666.99,87.3781739 663.13,87.3481739 659.28,87.3181739 C669.1,60.5881739 678.51,33.6981739 688.57,7.05817387 C687,4.73817387 685.57,2.32817387 684,0.0181738721 Z" ></path>
        <path d="M594.45,2.37817387 C612.67,2.37817387 630.89,2.36817387 649.11,2.37817387 C649.07,5.35817387 649.07,8.34817387 649.08,11.3281739 C636.72,11.3781739 624.37,11.3181739 612.02,11.3581739 C611.98,20.7281739 611.99,30.1081739 612.01,39.4881739 C622.3,39.5381739 632.59,39.4881739 642.88,39.5081739 C642.83,42.4681739 642.83,45.4181739 642.86,48.3681739 C632.58,48.4881739 622.3,48.3781739 612.02,48.4281739 C611.98,58.4381739 611.99,68.4381739 612.02,78.4481739 C624.81,78.4981739 637.61,78.4581739 650.4,78.4681739 C650.41,81.4181739 650.42,84.3681739 650.41,87.3081739 C634.1,87.3181739 617.79,87.3981739 601.48,87.2681739 C601.49,62.9181739 601.56,38.5681739 601.46,14.2181739 C600.26,9.76817387 596.6,6.40817387 594.45,2.37817387 Z" ></path>
        <path d="M566.85,2.36817387 C570.37,2.36817387 573.91,2.36817387 577.45,2.37817387 C577.47,30.6881739 577.47,58.9981739 577.44,87.3081739 C573.91,87.3381739 570.38,87.3381739 566.85,87.3081739 C566.82,58.9981739 566.82,30.6781739 566.85,2.36817387 Z" ></path>
        <path d="M499.11,2.35817387 C505.04,2.36817387 510.98,2.36817387 516.92,2.38817387 C516.88,14.5181739 516.81,26.6581739 516.95,38.7981739 C531.24,38.7581739 545.54,38.7481739 559.83,38.7981739 C559.81,41.9981739 559.8,45.1981739 559.8,48.3981739 C545.5,48.4581739 531.2,48.3981739 516.9,48.4281739 C516.86,61.3781739 516.87,74.3281739 516.9,87.2781739 C513.37,87.3381739 509.84,87.3381739 506.31,87.3081739 C506.28,62.9481739 506.44,38.5781739 506.24,14.2281739 C505.09,9.71817387 501.46,6.29817387 499.11,2.35817387 Z" ></path>
        <path d="M381.53,2.36817387 C388.33,2.46817387 395.15,2.18817387 401.95,2.46817387 C402.92,3.15817387 403.54,4.21817387 404.23,5.17817387 C414.58,21.1381739 424.97,37.0781739 435.33,53.0381739 C439.64,59.8181739 444.55,66.2681739 447.71,73.6981739 C447.63,49.9181739 447.66,26.1381739 447.68,2.35817387 C451.18,2.36817387 454.69,2.37817387 458.2,2.38817387 C458.28,30.8981739 458.35,59.4181739 458.16,87.9281739 C454.03,87.8981739 449.9,87.9181739 445.77,87.8581739 C434.67,70.5581739 423.44,53.3381739 412.31,36.0481739 C407.88,29.0581739 403.05,22.3081739 399.25,14.9381739 C399.25,39.0581739 399.34,63.1881739 399.21,87.3181739 C395.66,87.3481739 392.12,87.3481739 388.59,87.2281739 C388.61,62.8781739 388.66,38.5281739 388.57,14.1781739 C387.39,9.73817387 383.76,6.34817387 381.53,2.36817387 Z" ></path>
        <path d="M346.85,2.36817387 C352.77,2.35817387 358.69,2.38817387 364.62,2.36817387 C364.64,30.6781739 364.64,58.9881739 364.61,87.3081739 C361.08,87.3381739 357.54,87.3381739 354.01,87.3081739 C353.89,62.6781739 354.14,38.0381739 353.89,13.4181739 C352.14,9.40817387 349.13,6.08817387 346.85,2.36817387 Z" ></path>
        <path d="M327.52,2.39817387 C331.57,2.37817387 335.62,2.33817387 339.67,2.36817387 C330.62,13.7481739 321.49,25.0581739 312.38,36.3781739 C310.46,38.8681739 308.13,41.0881739 306.71,43.9181739 C318.17,58.4381739 329.87,72.7981739 341.33,87.3181739 C337,87.3481739 332.66,87.3281739 328.33,87.3081739 C317.05,72.9881739 305.51,58.8581739 294.4,44.3981739 C305.41,30.3781739 316.53,16.4381739 327.52,2.39817387 Z" ></path>
        <path d="M275.89,2.36817387 C281.8,2.35817387 287.72,2.38817387 293.63,2.35817387 C293.65,30.6781739 293.65,58.9881739 293.63,87.3081739 C290.09,87.3381739 286.56,87.3381739 283.03,87.3081739 C282.92,62.6781739 283.16,38.0381739 282.91,13.4181739 C281.12,9.42817387 278.16,6.08817387 275.89,2.36817387 Z" ></path>
        <path d="M231.05,2.04817387 C242.61,-0.621826128 255.21,1.53817387 265.16,8.04817387 C263.45,10.9281739 261.8,13.8481739 260.17,16.7781739 C253.04,12.3581739 244.57,9.98817387 236.17,10.9181739 C232.77,11.3081739 229.38,12.5081739 226.8,14.7981739 C223.67,17.6381739 222.32,22.4781739 224.05,26.4181739 C225.2,29.0681739 227.47,31.0081739 229.73,32.6981739 C238.64,39.0281739 249.22,42.7181739 257.64,49.7881739 C268.17,59.0881739 265.66,78.6681739 253.12,85.0881739 C239.26,92.2481739 221.8,89.1681739 209.67,79.9181739 C211.43,77.0681739 213.22,74.2281739 215.04,71.4181739 C220.98,75.5481739 227.71,79.0681739 235.13,79.0481739 C239.59,79.2381739 244.43,78.9681739 248.19,76.2581739 C253.8,72.5081739 254.95,63.8681739 250.78,58.6381739 C247.04,53.6981739 241,51.5881739 235.8,48.6381739 C228.66,44.7581739 220.96,41.0681739 215.94,34.4481739 C210.44,27.1881739 211.45,16.1681739 217.55,9.57817387 C221.06,5.64817387 225.97,3.20817387 231.05,2.04817387 Z" ></path>
        <path d="M173.24,6.47817387 C176.41,6.92817387 181.09,5.17817387 182.97,8.62817387 C184.41,11.2581739 181.73,13.3381739 180.16,15.0781739 C181.55,16.8581739 182.94,18.6481739 184.17,20.5481739 C180.01,20.4881739 178.55,16.0781739 175.84,13.6881739 C175.6,16.0181739 175.5,18.3581739 175.35,20.6981739 C174.85,20.5181739 173.87,20.1381739 173.38,19.9581739 C172.77,15.4881739 173.18,10.9681739 173.24,6.47817387 M175.48,8.28817387 C175.54,9.89817387 175.56,11.5081739 175.56,13.1181739 C177.31,12.7781739 179.06,12.4581739 180.81,12.1081739 C180.77,10.9481739 180.72,9.78817387 180.67,8.63817387 C178.94,8.53817387 177.21,8.42817387 175.48,8.28817387 Z" ></path>
        <path d="M176.55,1.44817387 C183.75,0.228173872 190.88,6.91817387 190.09,14.1781739 C189.77,22.1481739 180.28,27.8981739 173.12,24.1781739 C166.48,21.3381739 163.89,12.1381739 168.35,6.36817387 C170.24,3.65817387 173.28,1.85817387 176.55,1.44817387 M174.68,3.85817387 C167.41,6.13817387 165.81,16.9981739 172.07,21.3181739 C177.96,26.2281739 187.82,21.7081739 188.15,14.1181739 C188.98,7.08817387 181.25,1.26817387 174.68,3.85817387 Z" ></path>
        <path d="M113.63,0.898173872 C122.23,-0.131826128 131.23,0.508173872 139.18,4.21817387 C151.67,9.71817387 160.64,21.9181739 162.92,35.2881739 C165.69,49.5681739 162.26,65.4381739 152.19,76.2281739 C138.47,91.3281739 113.72,93.6381739 96.84,82.5881739 C84.97,75.0481739 78.02,61.0881739 77.74,47.1881739 C77.14,36.3981739 80.04,25.2981739 86.66,16.6581739 C93.09,8.08817387 103.07,2.47817387 113.63,0.898173872 M114.53,10.4981739 C108.03,12.0081739 102.16,15.8181739 97.91,20.9481739 C88.03,32.4481739 86.68,50.1381739 94.04,63.2781739 C98.29,70.9481739 105.53,77.1581739 114.15,79.2481739 C122.6,81.4981739 131.89,79.0781739 138.63,73.6481739 C152.78,62.5781739 156.11,40.7781739 146.83,25.5981739 C140.6,14.5381739 127.19,7.33817387 114.53,10.4981739 Z" ></path>
        <path d="M0.2,1.38817387 C21.62,1.36817387 43.04,1.35817387 64.46,1.38817387 C64.36,3.24817387 64.5,5.12817387 64.12,6.95817387 C62.58,9.99817387 60.33,12.5981739 58.44,15.4281739 C43.91,36.3981739 29.16,57.2181739 14.69,78.2381739 C26.87,78.2281739 39.06,77.9781739 51.25,78.2981739 C57.46,79.0981739 61.62,73.6581739 66.59,70.9481739 C66.62,76.3181739 66.6,81.6981739 66.58,87.0681739 C44.39,87.0481739 22.19,87.1381739 0,87.0281739 C0.2,84.7681739 -0.19,82.2381739 1.3,80.3281739 C17.4,57.0181739 33.53,33.7181739 49.65,10.4081739 C38.14,10.3681739 26.63,10.4481739 15.12,10.3681739 C9.08,9.52817387 5.05,14.9081739 0.14,17.4281739 C0.1,12.0781739 0.07,6.72817387 0.2,1.38817387 Z" ></path>
    </g>
    <g id="icon" fill="#3A1B7A" transform="translate(366.553210, 0.000000)">
        <path d="M108.50679,66.83 C131.22679,41.97 156.38679,19.24 184.05679,0 C184.15679,7.38 183.95679,14.75 184.16679,22.13 C177.98679,26.76 171.46679,30.92 165.30679,35.58 C141.90679,52.5 119.90679,71.35 99.3267896,91.6 C80.6267896,110.33 63.1367896,130.54 49.4267896,153.25 C69.2867896,147.03 89.7067896,141.62 110.62679,140.99 C126.03679,140.81 142.59679,143.62 154.70679,153.84 C165.45679,162.7 171.23679,176.29 173.00679,189.87 C174.99679,202.42 173.46679,215.26 170.46679,227.52 C162.96679,257.24 147.39679,285.24 124.70679,306.02 C114.27679,315.6 101.74679,323.39 87.6767896,326.08 C75.6767896,329.55 62.9367896,326.72 51.6867896,322.05 C36.5467896,315.35 24.5567896,302.24 18.6867896,286.81 C9.71678964,264.33 10.9067896,239.11 16.8467896,216.04 C20.7667896,200.54 26.9367896,185.74 33.9467896,171.41 C26.8667896,173.66 20.2767896,177.17 13.1867896,179.37 C13.3967896,173.08 17.1967896,167.86 20.7267896,162.97 C34.9967896,142.9 49.1267896,122.73 63.3467896,102.63 C65.9867896,98.86 68.8067896,95.22 71.1367896,91.25 C47.5267896,104.39 24.2667896,118.23 0.0367896355,130.26 C-0.0432103645,124.7 0.0367896355,119.14 0.00678963547,113.58 C25.3267896,101.6 50.4467896,89.2 75.6867896,77.05 C79.7467896,75.14 83.6967896,72.94 87.9967896,71.59 C87.7067896,76.24 85.6667896,80.55 83.0167896,84.32 C65.0267896,109.77 47.0767896,135.26 29.0967896,160.72 C33.0167896,159.21 36.9567896,157.72 40.8767896,156.2 C43.3667896,155.45 44.2267896,152.73 45.5567896,150.78 C63.6467896,120.77 84.8867896,92.69 108.50679,66.83 M91.9967896,157.16 C74.5667896,159.05 57.3267896,163.2 40.8567896,169.16 C36.7967896,175.85 34.1767896,183.35 31.3567896,190.63 C22.8667896,214.4 19.1667896,240.82 26.1767896,265.45 C30.3867896,280.44 39.1967896,294.65 52.5767896,303.04 C67.2467896,312.35 86.2067896,314.64 102.61679,308.83 C119.31679,303 132.95679,290.52 142.74679,276.05 C155.41679,257.46 164.19679,235.61 164.71679,212.92 C164.60679,195.86 158.55679,177.62 144.37679,167.19 C129.41679,156.36 109.76679,155.23 91.9967896,157.16 Z" ></path>
    </g>
</svg>