<svg viewBox="0 0 667 508" xmlns="http://www.w3.org/2000/svg">
    <g id="evoke" fill-rule="nonzero">
        <g transform="translate(0.000000, 384.142874)" fill="#56B7B4">
            <path d="M587.81,117.94 C587.81,78.63 587.81,39.32 587.82,0 C614.21,0.01 640.6,0 667,0.01 C667,5.52 667,11.03 667,16.54 C647.5,16.53 628,16.54 608.5,16.54 C608.5,27.02 608.49,37.5 608.51,47.98 C624.56,47.97 640.62,47.97 656.69,47.97 C656.69,53.56 656.69,59.14 656.69,64.73 C640.62,64.73 624.56,64.73 608.5,64.72 C608.49,76.89 608.5,89.06 608.5,101.23 C628,101.22 647.5,101.22 667,101.23 C667,106.8 667,112.37 667,117.94 C640.6,117.95 614.21,117.94 587.81,117.94 Z" ></path>
            <path d="M443.87,117.95 C443.88,78.63 443.87,39.32 443.88,0 C450.76,0.01 457.65,0 464.53,0.01 C464.54,16.2 464.52,32.39 464.54,48.59 C478.61,32.4 492.74,16.26 506.78,0.04 C515.47,-0.03 524.17,0.02 532.87,0.01 C516.74,18.93 500.59,37.82 484.48,56.75 C503.88,77.14 523.27,97.54 542.66,117.94 C534.04,117.95 525.43,117.94 516.81,117.95 C499.38,100.16 481.96,82.36 464.53,64.58 C464.53,82.37 464.54,100.16 464.53,117.95 C457.64,117.94 450.76,117.94 443.87,117.95 Z" ></path>
            <path d="M315.06,1.15 C332.47,-1.94 351.1,1.21 366.13,10.66 C378.76,18.39 388.62,30.92 392.36,45.32 C395.86,58.35 394.1,72.64 387.66,84.48 C382.55,94.23 374.44,102.19 365.06,107.85 C348.93,117.74 328.76,120.28 310.48,115.81 C294.67,111.98 280.18,102.33 271.13,88.74 C263.64,77.53 260.53,63.45 262.84,50.14 C264.49,39.76 269.41,30.06 276.43,22.29 C286.3,10.97 300.38,3.8 315.06,1.15 M320.09,19.1 C304.21,21.53 289.24,32.59 284.4,48.23 C281.15,58.47 282.86,70.06 288.77,79.01 C296.31,90.72 309.68,98.07 323.45,99.26 C337.89,100.69 353.06,95.48 362.98,84.76 C370.37,76.97 374.48,65.99 373.26,55.24 C372.27,44.99 366.59,35.54 358.65,29.13 C348.05,20.38 333.58,16.89 320.09,19.1 Z" ></path>
            <path d="M120.86,0.01 C128.46,5.68434189e-14 136.07,0.01 143.67,5.68434189e-14 C156.09,25.87 168.38,51.8 180.88,77.62 C192.4,51.74 203.97,25.88 215.52,0.01 C223,5.68434189e-14 230.49,5.68434189e-14 237.97,0.01 C219.11,41.09 200.24,82.16 181.37,123.24 C161.21,82.16 141.02,41.09 120.86,0.01 Z" ></path>
            <path d="M0,48.01 C22.96,48 45.92,48 68.88,48.01 C68.88,53.58 68.88,59.15 68.87,64.73 C52.8,64.73 36.73,64.73 20.66,64.72 C20.65,76.89 20.66,89.06 20.66,101.22 C40.17,101.24 59.69,101.19 79.21,101.25 C79.17,106.82 79.2,112.4 79.19,117.98 C52.79,117.97 26.39,117.98 0,117.97 C0,94.65 0,71.33 0,48.01 Z" ></path>
            <path d="M0,16.54 C0,11.03 0,5.51 0,0.01 C26.39,0 52.79,0.01 79.18,0 C79.18,5.53 79.25,11.05 79.12,16.58 C52.75,16.48 26.37,16.57 0,16.54 Z" ></path>
        </g>
        <g id="icon" transform="translate(210.173106, 0.000000)">
            <path d="M127.056894,98.3528736 C127.586894,98.0628736 128.626894,97.4728736 129.156894,97.1828736 C141.056894,98.3428736 152.926894,103.972874 159.896894,113.942874 C168.066894,125.312874 169.726894,139.952874 168.666894,153.572874 C168.426894,159.252874 172.826894,163.302874 175.866894,167.552874 C176.326894,170.112874 172.646894,170.792874 171.146894,172.352874 C168.466894,173.792874 169.946894,176.862874 170.706894,179.002874 C172.166894,181.732874 166.546894,182.812874 169.136894,185.752874 C167.876894,186.972874 166.346894,187.982874 165.446894,189.512874 C164.556894,192.812874 165.456894,196.652874 163.296894,199.552874 C161.116894,202.182874 157.326894,202.332874 154.196894,202.092874 C146.996894,201.592874 140.576894,196.532874 133.186894,197.812874 C126.836894,199.422874 121.986894,204.702874 119.456894,210.572874 C116.056894,218.342874 115.996894,227.032874 116.626894,235.352874 C111.036894,226.622874 109.476894,215.612874 112.486894,205.682874 C118.056894,186.382874 132.386894,171.522874 141.606894,154.062874 C141.456894,153.802874 141.136894,153.302874 140.986894,153.042874 C128.106894,152.622874 115.196894,153.152874 102.316894,152.802874 C97.996894,152.632874 99.056894,145.022874 103.196894,145.622874 C117.256894,145.432874 131.326894,145.782874 145.386894,145.462874 C149.486894,138.162874 150.796894,128.742874 148.626894,120.522874 C138.516894,120.532874 128.406894,120.512874 118.296894,120.542874 C116.856894,120.452874 115.126894,120.792874 114.166894,119.432874 C115.086894,117.122874 116.666894,115.162874 118.116894,113.162874 C127.056894,112.912874 136.066894,113.752874 144.956894,112.712874 C140.926894,105.892874 133.636894,102.222874 127.056894,98.3528736 Z"  fill="#56B7B4"></path>
            <path d="M121.976894,46.9828736 C127.426894,55.6328736 129.056894,66.4628736 126.146894,76.2928736 C120.666894,95.9528736 105.806894,110.872874 96.786894,128.782874 C98.286894,129.112874 99.796894,129.392874 101.336894,129.382874 C112.336894,129.372874 123.346894,129.352874 134.346894,129.372874 C136.016894,129.282874 138.036894,129.692874 138.636894,131.522874 C138.946894,133.692874 138.106894,136.772874 135.396894,136.642874 C121.226894,136.972874 107.016894,136.342874 92.866894,136.942874 C89.406894,144.352874 87.696894,153.052874 89.746894,161.092874 L90.346894,161.612874 C100.916894,162.132874 111.536894,161.392874 122.106894,161.952874 C123.836894,162.882874 122.166894,164.652874 121.566894,165.732874 C120.786894,166.872874 120.026894,168.062874 118.976894,168.972874 C111.126894,169.462874 103.236894,168.772874 95.396894,169.272874 C95.146894,169.582874 94.626894,170.202874 94.366894,170.512874 C98.226894,176.852874 105.256894,180.312874 111.556894,183.792874 C111.236894,184.262874 110.596894,185.202874 110.276894,185.682995 C101.296894,185.702874 92.116894,183.252874 84.706894,178.082874 C77.526894,173.092874 72.606894,165.092874 71.236894,156.472874 C69.116894,144.072874 73.196894,131.402874 79.866894,121.012874 C89.966894,105.392874 104.396894,93.0128736 113.766894,76.8628736 C119.136894,67.8728736 122.156894,57.4828736 121.976894,46.9828736 Z"  fill="#56B7B4"></path>
            <path d="M119.726894,0.962873625 C122.156894,-0.517126375 125.206894,-0.197126375 127.556894,1.28287362 C165.826894,23.3528736 204.086894,45.4428736 242.346894,67.5328736 C245.326894,68.9928736 246.916894,72.2328736 246.616894,75.4928736 C246.586894,119.482874 246.636894,163.482874 246.586894,207.472874 C246.776894,210.442874 245.166894,213.282874 242.516894,214.642874 C204.266894,236.762874 165.976894,258.822874 127.716894,280.932874 C125.076894,282.692874 121.586894,282.702874 118.956894,280.942874 C80.686894,258.832874 42.386894,236.752874 4.11689403,214.632874 C1.48689403,213.272874 -0.123105967,210.452874 0.0668940328,207.492874 C0.0168940328,163.482874 0.0668940328,119.472874 0.0368940328,75.4628736 C-0.273105967,72.1628736 1.38689403,68.9328736 4.39689403,67.4828736 C42.846894,45.3228736 81.236894,23.0528736 119.726894,0.962873625 M14.826894,78.5128736 C14.826894,120.262874 14.836894,162.012874 14.826894,203.762874 C50.986894,224.652874 87.156894,245.522874 123.326894,266.392874 C159.486894,245.522874 195.666894,224.652874 231.826894,203.762874 C231.816894,162.012874 231.826894,120.262874 231.826894,78.5228736 C195.656894,57.6428736 159.486894,36.7628736 123.316894,15.8928736 C87.156894,36.7628736 50.996894,57.6428736 14.826894,78.5128736 Z"  fill="#0F1F2B"></path>
        </g>
    </g>
</svg>