<svg viewBox="0 0 614 119" xmlns="http://www.w3.org/2000/svg">
    <g id="diolase" fill="#4D4D4D" fill-rule="nonzero">
        <path d="M604.62,10.09 C608.51,7.86 613.91,10.98 613.87,15.47 C614.23,20.04 608.99,23.58 604.89,21.45 C600.2,19.59 600.03,12.18 604.62,10.09 M602.69,17.78 C603.9,21.14 607.83,21.16 610.79,20.72 C609.33,18.98 607.8,17.28 606.1,15.77 C606,16.66 605.81,18.45 605.71,19.35 L604.8,19.28 C604.77,16.95 604.77,14.61 604.77,12.28 C606.89,12.41 609.32,12.25 610.54,14.38 C609.98,14.86 608.85,15.84 608.29,16.32 C609.28,17.58 610.57,18.51 611.96,19.3 C613.37,16.36 613.06,12.09 609.57,10.83 C605.45,8.84 600.67,13.7 602.69,17.78 M606.38,13.6 C605.85,15.16 606.45,15.67 608.18,15.13 C608.7,13.58 608.1,13.07 606.38,13.6 Z" ></path>
        <path d="M559.26,62.24 C559.03,60.1 560.7,57.63 563.06,58.05 C574.64,58.01 586.22,58.06 597.8,58.08 C597.84,65.76 597.86,73.45 597.79,81.14 C586.54,81.2 575.3,81.16 564.06,81.18 C561.78,81.53 559.17,79.9 559.3,77.43 C559.17,72.37 559.24,67.3 559.26,62.24 Z" ></path>
        <path d="M534.46,28.67 C540.38,22.73 548.99,20.38 557.19,20.38 C571.57,20.33 585.94,20.37 600.32,20.36 C600.32,28.47 600.32,36.58 600.32,44.68 C587.58,44.7 574.85,44.66 562.11,44.69 C558.51,44.63 554.61,45.65 552.3,48.6 C549.76,51.57 549.58,55.68 549.61,59.39 C549.68,67.06 549.57,74.72 549.66,82.38 C549.66,85.92 550.76,89.68 553.61,91.98 C556.22,94.24 559.82,94.56 563.14,94.53 C575.53,94.5 587.93,94.52 600.32,94.52 C600.32,102.63 600.33,110.74 600.32,118.85 C585.93,118.85 571.54,118.88 557.14,118.84 C549.08,118.81 540.62,116.58 534.71,110.82 C528.09,104.61 525.56,95.27 525.52,86.44 C525.5,75.07 525.48,63.71 525.54,52.34 C525.65,43.78 528.15,34.78 534.46,28.67 Z" ></path>
        <path d="M449.31,22.5 C454.99,20.38 461.13,20.28 467.11,20.35 C482.48,20.37 497.84,20.35 513.21,20.36 C513.21,28.47 513.21,36.59 513.21,44.7 C496.5,44.7 479.8,44.71 463.1,44.69 C460.7,44.77 457.99,44.71 456.03,46.32 C452.86,49.37 454.07,56.34 459.02,56.67 C471.02,57.83 483.31,55.58 495.16,58.35 C505.01,60.65 513.77,68.18 516.27,78.16 C518.86,88.6 517.53,100.92 509.87,109 C503.37,116.07 493.48,118.82 484.13,118.86 C466.8,118.9 449.46,118.86 432.13,118.87 C432.13,110.76 432.13,102.64 432.13,94.53 C448.8,94.54 465.48,94.51 482.15,94.55 C484.87,94.48 487.74,94.59 490.29,93.46 C494.95,91.31 494.44,82.74 489.07,81.86 C477.2,80.19 465,82.65 453.18,80.29 C444.23,78.42 436.15,72.17 432.76,63.59 C430.02,56.61 429.82,48.75 431.61,41.51 C433.82,32.72 440.76,25.41 449.31,22.5 Z" ></path>
        <path d="M363.83,22.18 C370.84,19.59 378.95,19.69 385.8,22.75 C392.76,25.91 397.3,32.7 399.66,39.76 C408.31,66.12 416.95,92.5 425.58,118.87 C417.18,118.88 408.78,118.87 400.39,118.87 C393.29,95.7 386.19,72.53 379.1,49.36 C378.41,47.02 376.98,44.12 374.11,44.27 C371.11,44.11 369.96,47.28 369.25,49.62 C362.21,72.71 355.12,95.79 348.05,118.87 C339.66,118.87 331.26,118.88 322.86,118.87 C331.51,92.25 340.17,65.63 348.84,39.02 C351.11,31.61 356.43,24.92 363.83,22.18 Z" ></path>
        <path d="M239.65,7.10542736e-15 C248.13,7.10542736e-15 256.61,7.10542736e-15 265.1,7.10542736e-15 C265.11,26.81 265.08,53.62 265.11,80.43 C265.24,84.16 265.48,88.48 268.43,91.17 C271.42,93.61 275.5,93.77 279.18,93.86 C292.03,93.87 304.88,93.86 317.73,93.86 C317.73,102.2 317.74,110.54 317.73,118.87 C303.21,118.83 288.69,118.96 274.18,118.81 C264.85,118.45 254.53,116.79 247.77,109.74 C241.32,102.66 239.92,92.59 239.67,83.39 C239.61,55.59 239.66,27.8 239.65,7.10542736e-15 Z" ></path>
        <path d="M158.63,21.11 C169.72,19.59 180.98,20.7 192.15,20.35 C201.27,20.05 211.18,21.05 218.47,27.09 C225.77,32.82 228.91,42.34 228.94,51.36 C228.96,64.05 229.07,76.75 228.88,89.44 C228.64,99.29 224,109.45 215.18,114.41 C205.2,120.34 193.2,118.59 182.15,118.86 C171.02,118.54 159,120.42 148.87,114.65 C139.78,109.76 134.94,99.42 134.74,89.38 C134.53,77.39 134.71,65.4 134.64,53.41 C134.57,46.09 135.88,38.44 140.21,32.36 C144.44,26.24 151.37,22.38 158.63,21.11 M169.51,43.97 C163.99,44.03 159.15,48.75 159.14,54.31 C158.84,62.65 159.14,71.01 159.01,79.37 C159.05,83.13 158.71,87.27 160.91,90.56 C162.85,93.63 166.51,95.19 170.05,95.28 C176.07,95.48 182.11,95.26 188.13,95.36 C192.15,95.31 196.6,95.73 200.07,93.28 C203.31,91.14 204.63,87.12 204.58,83.39 C204.66,75.06 204.55,66.73 204.62,58.41 C204.62,54.93 204.62,51.11 202.41,48.21 C200.13,44.97 195.99,43.8 192.19,43.87 C184.63,43.92 177.07,43.74 169.51,43.97 Z" ></path>
        <path d="M99.67,20.36 C107.73,20.36 115.79,20.36 123.85,20.36 C123.85,53.2 123.85,86.03 123.84,118.86 C115.78,118.85 107.73,118.86 99.67,118.85 C99.66,86.02 99.67,53.19 99.67,20.36 Z" ></path>
        <path d="M-2.13162821e-14,20.36 C18.03,20.35 36.05,20.38 54.08,20.35 C62.54,20.13 71.56,21.79 78.13,27.48 C85.37,33.54 88.4,43.23 88.47,52.42 C88.53,63.74 88.5,75.05 88.49,86.37 C88.46,95.16 85.91,104.44 79.36,110.64 C73.3,116.64 64.51,118.86 56.19,118.85 C37.46,118.86 18.73,118.86 -2.13162821e-14,118.85 C-2.13162821e-14,86.02 -2.13162821e-14,53.19 -2.13162821e-14,20.36 M24.19,44.68 C24.18,61.29 24.18,77.9 24.19,94.51 C33.16,94.51 42.13,94.52 51.1,94.53 C54.17,94.52 57.48,94.2 59.97,92.2 C62.94,89.93 64.1,86.07 64.11,82.46 C64.21,75.11 64.06,67.75 64.16,60.39 C64.15,56.46 64.28,52.11 61.74,48.82 C59.57,45.81 55.72,44.7 52.16,44.7 C42.84,44.64 33.51,44.71 24.19,44.68 Z" ></path>
    </g>
</svg>