<svg viewBox="0 0 870 375" xmlns="http://www.w3.org/2000/svg">
    <g id="morpheus8" transform="translate(-0.000000, 284.515146)">
        <path d="M821.546531,10.11 C830.796531,0.14 848.646531,0.67 857.136531,11.35 C862.786531,17.92 863.006531,28.03 858.166531,35.11 C854.446531,33.03 850.476531,31.42 846.316531,30.5 C848.986531,27.56 850.146531,23.03 847.946531,19.49 C844.556531,13.32 834.876531,12.68 830.556531,18.16 C827.356531,21.76 827.996531,27.76 831.756531,30.71 C834.206531,32.99 837.666531,33.29 840.846531,33.36 C851.256531,33.79 861.456531,39.68 866.446531,48.92 C870.946531,57.02 870.626531,67.51 865.646531,75.33 C859.146531,85.91 845.866531,91.21 833.776531,89.25 C822.276531,87.71 811.576531,79.29 808.746531,67.83 C805.966531,57.55 810.456531,46.38 818.706531,39.94 C821.886531,42.97 825.646531,45.34 829.796531,46.8 C824.156531,49.83 819.936531,55.9 820.516531,62.48 C820.976531,70.54 828.146531,77.02 835.956531,77.97 C843.646531,79.2 852.116531,75.33 855.546531,68.19 C858.426531,62.51 857.176531,55.21 852.776531,50.66 C849.046531,46.53 843.436531,44.59 837.966531,44.66 C829.296531,44.56 820.666531,39.29 817.376531,31.14 C814.406531,24.11 816.216531,15.51 821.546531,10.11 Z" fill="#0D1F2C"></path>
        <path d="M741.246531,12.93 C747.116531,4.74 758.236531,1.5 767.866531,3.56 C774.056531,4.8 779.426531,8.53 783.746531,13.02 C779.916531,15.84 776.076531,18.64 772.256531,21.46 C769.626531,19.1 766.626531,16.73 762.956531,16.55 C759.116531,16.18 754.496531,17.76 753.006531,21.61 C752.066531,24.83 754.636531,27.55 756.826531,29.53 C764.846531,36.54 772.836531,43.58 780.816531,50.63 C785.526531,54.92 788.846531,61.1 788.536531,67.59 C788.316531,74.12 784.386531,80.04 779.216531,83.82 C769.616531,90.92 755.956531,91.44 745.516531,85.9 C741.146531,83.7 737.456531,80.43 734.186531,76.85 C738.036531,74.02 741.926531,71.25 745.826531,68.5 C749.466531,72.53 754.286531,75.91 759.906531,76.12 C765.086531,76.28 771.126531,74.15 773.336531,69.09 C774.796531,65.52 772.366531,61.94 769.796531,59.65 C763.226531,53.88 756.736531,48.02 750.076531,42.35 C745.886531,38.86 741.516531,35.14 739.476531,29.91 C737.066531,24.43 737.696531,17.77 741.246531,12.93 Z" fill="#58B6B3"></path>
        <path d="M634.166531,4.04 C639.056531,4.03 643.936531,4.03 648.826531,4.03 C648.856531,22.87 648.776531,41.71 648.866531,60.55 C648.726531,65.49 651.316531,70.37 655.656531,72.8 C664.236531,77.67 675.906531,77.42 683.916531,71.5 C687.236531,68.93 688.796531,64.68 688.746531,60.57 C688.766531,41.73 688.726531,22.88 688.756531,4.04 C693.686531,4.03 698.626531,4.03 703.566531,4.03 C703.596531,22.87 703.576531,41.71 703.576531,60.55 C703.596531,67.08 701.376531,73.71 696.896531,78.55 C690.626531,85.55 681.186531,88.94 671.976531,89.52 C661.666531,90.2 650.726531,87.6 642.846531,80.63 C637.166531,75.66 634.046531,68.11 634.166531,60.6 C634.166531,41.75 634.166531,22.89 634.166531,4.04 Z" fill="#58B6B3"></path>
        <path d="M542.756531,4.04 C561.476531,4.03 580.196531,4.03 598.906531,4.03 C598.916531,8.06 598.916531,12.08 598.906531,16.11 C585.106531,16.11 571.306531,16.1 557.506531,16.12 C557.486531,23.7 557.486531,31.28 557.506531,38.86 C568.886531,38.87 580.276531,38.86 591.656531,38.87 C591.666531,42.92 591.666531,46.97 591.666531,51.03 C580.276531,51.04 568.886531,51.01 557.496531,51.04 C557.496531,59.84 557.486531,68.64 557.506531,77.44 C571.306531,77.46 585.106531,77.44 598.906531,77.45 C598.916531,81.5 598.916531,85.55 598.906531,89.61 C580.186531,89.61 561.476531,89.62 542.756531,89.61 C542.746531,61.08 542.746531,32.56 542.756531,4.04 Z" fill="#58B6B3"></path>
        <path d="M437.756531,4.04 C442.636531,4.02 447.526531,4.03 452.406531,4.04 C452.416531,16.2 452.416531,28.36 452.406531,40.52 C464.826531,40.54 477.246531,40.54 489.666531,40.52 C489.666531,28.36 489.656531,16.2 489.676531,4.04 C494.586531,4.02 499.496531,4.02 504.406531,4.04 C504.416531,32.56 504.416531,61.08 504.406531,89.6 C499.496531,89.62 494.586531,89.62 489.676531,89.6 C489.656531,77.33 489.676531,65.05 489.666531,52.78 C477.246531,52.79 464.826531,52.75 452.406531,52.8 C452.416531,65.07 452.426531,77.34 452.396531,89.61 C447.516531,89.61 442.636531,89.62 437.756531,89.6 C437.746531,61.08 437.746531,32.56 437.756531,4.04 Z" fill="#58B6B3"></path>
        <path d="M348.076531,4.04 C357.346531,4.03 366.616531,4.03 375.896531,4.03 C383.106531,4.03 390.586531,5.66 396.456531,10.05 C411.156531,20.84 410.216531,46.81 394.316531,56.09 C384.906531,62.02 373.396531,60.52 362.836531,60.7 C362.816531,70.34 362.836531,79.97 362.826531,89.61 C357.916531,89.61 353.006531,89.62 348.096531,89.61 C348.076531,61.08 348.096531,32.56 348.076531,4.04 M362.836531,16.12 C362.816531,26.92 362.826531,37.72 362.836531,48.52 C370.506531,48.13 378.676531,49.79 385.916531,46.53 C396.966531,41.04 396.166531,21.37 384.176531,17.41 C377.296531,15.16 369.936531,16.43 362.836531,16.12 Z" fill="#58B6B3"></path>
        <path d="M252.256531,89.6 C252.256531,61.08 252.236531,32.55 252.266531,4.03 C261.826531,4.06 271.396531,3.99 280.956531,4.05 C288.066531,4.15 295.406531,5.94 301.056531,10.43 C314.246531,20.75 314.416531,43.51 301.376531,54.03 C298.826531,56.17 295.746531,57.53 292.706531,58.84 C301.106531,69.08 309.466531,79.34 317.836531,89.6 C312.286531,89.62 306.736531,89.62 301.196531,89.6 C293.316531,79.98 285.486531,70.33 277.616531,60.7 C274.076531,60.69 270.536531,60.69 267.006531,60.7 C266.986531,70.33 267.006531,79.97 266.996531,89.61 C262.076531,89.62 257.166531,89.62 252.256531,89.6 M267.006531,16.2 C266.996531,27 266.996531,37.81 267.006531,48.61 C274.426531,48.21 282.276531,49.81 289.346531,46.9 C301.146531,41.79 300.516531,21.05 287.916531,17.33 C281.126531,15.36 273.956531,16.48 267.006531,16.2 Z" fill="#58B6B3"></path>
        <path d="M159.346531,5.16 C171.586531,2.56 184.826531,4.45 195.626531,10.87 C205.286531,16.44 212.806531,25.83 215.616531,36.67 C218.006531,45.63 217.126531,55.44 213.116531,63.81 C207.286531,76.35 195.036531,85.31 181.666531,88.32 C167.836531,91.52 152.566531,88.83 141.076531,80.37 C133.656531,74.95 127.696531,67.32 125.046531,58.46 C121.316531,46.53 123.656531,32.87 131.266531,22.94 C137.946531,13.73 148.276531,7.51 159.346531,5.16 M164.146531,16.82 C152.216531,18.81 141.296531,27.68 138.296531,39.6 C135.266531,50.79 140.316531,63.14 149.576531,69.83 C162.646531,79.81 182.796531,78.78 194.556531,67.18 C203.076531,59.24 206.146531,45.87 201.216531,35.2 C195.186531,21.32 178.706531,13.91 164.146531,16.82 Z" fill="#58B6B3"></path>
        <path d="M0.0165306122,0.2 C14.6565306,20.12 29.2665306,40.06 43.9165306,59.97 C58.6265306,40 73.2665306,19.97 87.9865306,0 C88.0165306,29.87 87.9965306,59.74 87.9965306,89.61 C83.0565306,89.62 78.1165306,89.62 73.1765306,89.6 C73.1565306,74.51 73.1865306,59.41 73.1565306,44.32 C63.3765306,57.57 53.6865306,70.88 43.9165306,84.13 C34.1265306,70.88 24.3865306,57.6 14.5865306,44.36 C14.5665306,59.44 14.5965306,74.52 14.5765306,89.6 C9.71653061,89.62 4.86653061,89.61 0.00653061224,89.61 C0.00653061224,59.8 -0.0134693878,30 0.0165306122,0.2 Z" fill="#58B6B3"></path>
    </g>
    <g id="icon" transform="translate(344.715256, -0.000000)">
        <path d="M95.5412749,0.425145906 C97.3712749,-0.414854094 99.4912749,0.0851459059 101.141275,1.09514591 C131.351275,18.5551459 161.571275,36.0051459 191.791275,53.4651459 C193.841275,54.4951459 195.391275,56.5551459 195.261275,58.9451459 C195.321275,93.9951459 195.261275,129.045146 195.291275,164.095146 C195.471275,166.485146 194.441275,168.965146 192.241275,170.085146 C161.841275,187.685146 131.411275,205.245146 100.991275,222.805146 C98.7912749,224.315146 95.9112749,223.995146 93.7912749,222.535146 C63.6012749,205.045146 33.3612749,187.645146 3.18127491,170.155146 C0.941274914,169.035146 -0.208725086,166.565146 0.0312749137,164.125146 C0.0612749137,129.075146 0,94.0251459 0.0612749137,58.9851459 C-0.188725086,56.2151459 1.92127491,54.1551459 4.22127491,53.0351459 C34.7012749,35.5651459 64.9912749,17.7551459 95.5412749,0.425145906 M11.7912749,62.2951459 C11.7812749,95.3751459 11.7912749,128.445146 11.7812749,161.525146 C40.4112749,178.065146 69.0312749,194.645146 97.6912749,211.135146 C126.291275,194.565146 154.931275,178.065146 183.541275,161.515146 C183.531275,128.445146 183.541275,95.3751459 183.531275,62.3051459 C154.891275,45.7651459 126.271275,29.2051459 97.6312749,12.6851459 C69.0212749,29.2351459 40.4012749,45.7551459 11.7912749,62.2951459 Z" fill="#0D1F2C"></path>
        <path d="M79.7612749,56.5551459 C81.0112749,55.3151459 82.6612749,56.6851459 83.5612749,57.6751459 C93.5512749,67.7251459 103.601275,77.7151459 113.611275,87.7551459 C111.451275,89.9251459 109.281275,92.0851459 107.111275,94.2451459 C98.4912749,85.4551459 89.7212749,76.8051459 81.0312749,68.0951459 C77.5512749,71.5151459 74.2112749,75.0851459 70.6812749,78.4451459 C73.7212749,81.7251459 76.9712749,84.8051459 80.1012749,88.0051459 C77.9412749,90.1751459 75.7812749,92.3451459 73.6012749,94.4951459 C70.4612749,91.3451459 67.3112749,88.1851459 64.1612749,85.0551459 C60.8112749,88.3851459 57.4612749,91.7251459 54.1312749,95.0751459 C62.7212749,103.865146 71.4812749,112.495146 80.1512749,121.215146 C77.9912749,123.385146 75.8212749,125.545146 73.6512749,127.705146 C63.4412749,117.535146 53.3312749,107.275146 43.1412749,97.0951459 C42.0212749,96.2751459 41.5512749,94.4951459 42.7612749,93.5151459 C47.6312749,88.4851459 52.6112749,83.5451459 57.6512749,78.6851459 C52.8212749,73.3351459 47.2912749,68.6751459 42.6512749,63.1751459 C44.6212749,60.9551459 46.7512749,58.8751459 49.0812749,57.0151459 C54.1512749,61.9851459 59.1212749,67.0451459 64.1612749,72.0351459 C69.4012749,66.9251459 74.4212749,61.5651459 79.7612749,56.5551459 Z" fill="#58B6B3"></path>
        <path d="M113.051275,56.8451459 C114.321275,55.0351459 116.301275,56.6851459 117.381275,57.8351459 C121.941275,62.5451459 126.601275,67.1651459 131.241275,71.7851459 C136.271275,66.8751459 141.061275,61.7351459 146.251275,56.9951459 C148.471275,58.9051459 150.561275,60.9651459 152.551275,63.1351459 C147.951275,68.4951459 142.641275,73.1951459 137.751275,78.2951459 C142.571275,83.1951459 147.511275,87.9751459 152.321275,92.8951459 C153.471275,93.7451459 153.921275,95.5151459 152.681275,96.5351459 C148.031275,101.415146 143.211275,106.145146 138.441275,110.915146 C136.321275,108.735146 134.191275,106.575146 132.031275,104.445146 C135.071275,101.205146 138.281275,98.1251459 141.391275,94.9651459 C138.021275,91.5651459 134.641275,88.1851459 131.241275,84.8051459 C122.471275,93.5451459 113.731275,102.305146 104.981275,111.065146 C102.791275,108.945146 100.641275,106.795146 98.5012749,104.625146 C107.281275,95.8651459 116.031275,87.0551459 124.781275,78.2551459 C121.421275,74.8751459 118.041275,71.5151459 114.681275,68.1351459 C111.491275,71.2551459 108.371275,74.4351459 105.201275,77.5751459 C103.041275,75.4351459 100.891275,73.2851459 98.7612749,71.1251459 C103.581275,66.4251459 108.111275,61.4251459 113.051275,56.8451459 Z" fill="#58B6B3"></path>
        <path d="M65.3012749,104.585146 C73.7012749,96.1651459 82.1212749,87.7551459 90.5312749,79.3451459 C92.6812749,81.4851459 94.8312749,83.6351459 96.9812749,85.7951459 C88.5512749,94.2251459 80.1312749,102.675146 71.6812749,111.085146 C69.5512749,108.915146 67.4312749,106.735146 65.3012749,104.585146 Z" fill="#58B6B3"></path>
        <path d="M88.4412749,96.1051459 C96.8012749,104.605146 105.311275,112.955146 113.681275,121.445146 C111.521275,123.595146 109.361275,125.755146 107.201275,127.915146 C98.7512749,119.505146 90.4012749,110.995146 81.9712749,102.575146 C84.1112749,100.415146 86.2712749,98.2551459 88.4412749,96.1051459 Z" fill="#58B6B3"></path>
        <path d="M121.811275,95.9751459 C131.911275,106.025146 141.981275,116.115146 152.061275,126.195146 C153.281275,127.175146 153.861275,129.185146 152.361275,130.205146 C147.511275,135.245146 142.441275,140.085146 137.541275,145.085146 C142.561275,150.415146 148.221275,155.155146 152.811275,160.875146 C150.791275,163.035146 148.691275,165.125146 146.301275,166.875146 C141.231275,161.765146 136.131275,156.675146 131.031275,151.605146 C125.891275,156.595146 120.991275,161.845146 115.761275,166.745146 C114.741275,167.935146 112.931275,167.195146 112.121275,166.165146 C102.001275,156.125146 91.9912749,145.975146 81.9312749,135.885146 C84.0612749,133.715146 86.2112749,131.565146 88.3712749,129.435146 C97.0212749,138.055146 105.631275,146.715146 114.281275,155.325146 C117.711275,151.925146 121.121275,148.515146 124.521275,145.085146 C121.441275,141.975146 118.331275,138.895146 115.251275,135.795146 C117.401275,133.625146 119.571275,131.455146 121.751275,129.305146 C124.841275,132.395146 127.931275,135.495146 131.031275,138.585146 C134.441275,135.195146 137.831275,131.785146 141.241275,128.395146 C132.631275,119.725146 123.951275,111.115146 115.331275,102.455146 C117.491275,100.295146 119.651275,98.1351459 121.811275,95.9751459 Z" fill="#58B6B3"></path>
        <path d="M42.9712749,126.855146 C47.6112749,122.115146 52.4212749,117.535146 57.0812749,112.815146 C59.2512749,114.965146 61.4112749,117.125146 63.5612749,119.295146 C60.3712749,122.515146 57.1512749,125.695146 53.9612749,128.925146 C57.3312749,132.285146 60.6812749,135.685146 64.0212749,139.085146 C72.8312749,130.315146 81.6012749,121.505146 90.4012749,112.725146 C92.5612749,114.865146 94.7212749,117.015146 96.8612749,119.175146 C88.1012749,127.995146 79.3312749,136.805146 70.5412749,145.595146 C73.9112749,148.965146 77.2812749,152.335146 80.6512749,155.705146 C83.9112749,152.475146 87.1512749,149.205146 90.4112749,145.975146 C92.5812749,148.125146 94.7412749,150.285146 96.9012749,152.455146 C91.9612749,157.315146 87.2012749,162.365146 82.1512749,167.105146 C81.1512749,168.265146 79.4912749,167.685146 78.6512749,166.665146 C73.6812749,161.905146 69.0012749,156.855146 64.0712749,152.055146 C59.0612749,156.995146 54.1912749,162.075146 49.0712749,166.905146 C46.8112749,165.045146 44.7112749,163.005146 42.7212749,160.855146 C47.2212749,155.355146 52.6512749,150.705146 57.5612749,145.575146 C52.6612749,140.495146 47.5112749,135.655146 42.6512749,130.545146 C41.3912749,129.525146 41.7812749,127.725146 42.9712749,126.855146 Z" fill="#58B6B3"></path>
        <path d="M98.4212749,137.955146 C106.871275,129.495146 115.321275,121.035146 123.801275,112.595146 C125.951275,114.755146 128.111275,116.915146 130.271275,119.085146 C121.831275,127.555146 113.371275,135.995146 104.921275,144.445146 C102.731275,142.295146 100.571275,140.135146 98.4212749,137.955146 Z" fill="#58B6B3"></path>
    </g>
</svg>