<svg viewBox="0 0 499.44 331.95" xmlns="http://www.w3.org/2000/svg">
  <defs>
    <linearGradient id="gradient" x1="251.33" y1="255.09" x2="251.33" y2="0" gradientUnits="userSpaceOnUse">
      <stop offset="0" stop-color="#cca462"/>
      <stop offset=".39" stop-color="#aa7745"/>
      <stop offset=".79" stop-color="#94643d"/>
      <stop offset="1" stop-color="#66452b"/>
    </linearGradient>
  </defs>
  <g id="logo">
    <g>
      <path fill="url(#gradient)" d="M415.88,0h-8.45l-91.52,222.75L215.55,0h-27.94l27.57,61.02-2.44,35.78C200.25,64.59,187.78,32.39,175.37,.18h-11.39L59.95,254.91h11.03L161.4,34.36c15.66,40.69,31.45,81.37,47.27,122.06l-6.73,98.66h10.66l4.96-75.81c9.82,25.21,19.64,50.42,29.48,75.63h27.2c-17.6-45.19-35.21-90.38-52.76-135.56l2.52-38.48,78.66,174.23h11.03l8.09-19.48L396.4,55.13l20.95,199.96h25.36L415.88,0Z" />
      <g fill="#1d1d1b" stroke="#1d1d1b" stroke-miterlimit="10" stroke-width=".89">
        <path d="M25.17,331.42h-3.11c-3.28-8.41-6.56-16.81-9.79-25.22l-10.34,25.22H.66l11.9-29.13h1.3c3.74,9.71,7.52,19.42,11.31,29.13Z" />
        <path d="M35.1,302.29h15.68v1.18h-12.78v12.82h9.41v1.18h-9.41v12.82h12.78v1.18h-15.68v-29.17Z" />
        <path d="M73.44,306.96c-.25-1.01-1.98-3.4-4.92-3.4s-4.5,2.27-4.5,3.95,.63,3.28,6.85,7.19c9.25,5.3,6.14,16.98-2.82,16.81-2.52,0-6.64-1.6-8.58-6.35h1.26c0,.55,2.65,5.09,7.15,5.17,5.97,.21,8.16-7.06,3.24-11.48-3.66-3.32-7.86-4.37-9.25-8.37-1.35-3.82,1.81-7.82,5.72-8.11,2.48-.17,5.17,.84,6.3,3.32l.04,1.26h-.5Z" />
        <path d="M92.06,302.37h12.95v1.18h-10.05v27.95h-2.9v-27.95h-10.05v-1.18h10.05Z" />
        <path d="M134.78,317.46h-17.19v14h-2.9v-29.17h2.9v14h17.19v-14h2.94v29.17h-2.94v-14Z" />
        <path d="M149.46,302.29h15.68v1.18h-12.78v12.82h9.41v1.18h-9.41v12.82h12.78v1.18h-15.68v-29.17Z" />
        <path d="M185.07,302.37h12.95v1.18h-10.05v27.95h-2.9v-27.95h-10.05v-1.18h10.05Z" />
        <path d="M207.82,302.29h2.9v29.17h-2.9v-29.17Z" />
        <path d="M236.99,301.2c4.16,0,7.94,1.68,10.68,4.46l-1.3,1.3c-2.31-2.82-5.67-4.58-9.37-4.58-6.98,0-12.65,6.26-12.65,13.95s5.67,13.96,12.65,13.96c3.7,0,7.06-1.77,9.37-4.58l1.3,1.35c-2.73,2.73-6.51,4.41-10.68,4.41-8.37,0-15.13-6.77-15.13-15.13s6.77-15.13,15.13-15.13Z" />
        <path d="M280.64,302.33h9.37c4.12,0,7.52,3.36,7.52,7.48,0,2.69-1.43,5.04-3.57,6.39,3.78,.46,6.72,3.7,6.72,7.61,0,4.2-3.45,7.65-7.69,7.65h-12.36v-29.13Zm2.9,1.18v12.65h5.17c3.49,0,6.3-2.86,6.3-6.35s-2.82-6.3-6.3-6.3h-5.17Zm0,13.87v12.74h7.78c3.74,0,6.85-2.61,6.85-6.31s-3.11-6.43-6.85-6.43h-7.78Z" />
        <path d="M308.26,302.12l8.32,13.83,7.52-13.83h1.35l-8.41,15.51v13.87h-2.9v-13.91c-3.36-5.55-6.68-11.1-9.29-15.47h3.4Z" />
        <path d="M359.3,331.46l1.51-22.19-3.15-6.98h3.2l11.48,25.47,10.47-25.47h.97l3.07,29.17h-2.9l-2.4-22.87-8.53,20.64-.92,2.23h-1.26l-9-19.92-1.3,19.92h-1.22Z" />
        <path d="M421.06,331.42h-3.11c-3.28-8.41-6.56-16.81-9.79-25.22l-10.34,25.22h-1.26l11.9-29.13h1.3c3.74,9.71,7.52,19.42,11.31,29.13Z" />
        <path d="M430.9,302.33h9.37c4.12,0,7.52,3.4,7.52,7.52s-3.32,7.4-7.36,7.52c5.04,2.44,8.49,7.61,8.49,13.58v.42h-2.48v-.42c0-6.47-3.99-12.02-9.41-13.58h-3.24v14.12h-2.9v-29.17Zm2.9,1.22v12.61h5.17c3.49,0,6.3-2.82,6.3-6.3s-2.82-6.3-6.3-6.3h-5.17Z" />
        <path d="M460.37,302.29h2.9v29.17h-2.9v-29.17Z" />
        <path d="M498.79,331.42h-3.11c-3.28-8.41-6.56-16.81-9.79-25.22l-10.34,25.22h-1.26l11.9-29.13h1.3c3.74,9.71,7.52,19.42,11.31,29.13Z" />
      </g>
    </g>
  </g>
</svg>