<svg viewBox="0 0 1246 537" xmlns="http://www.w3.org/2000/svg">
    <g id="logo-heliocare-360" transform="translate(0.000000, -0.000000)" fill-rule="nonzero">
        <g id="YELLOW" transform="translate(0.000000, 347.670761)">
            <path d="M0,0.02 C415.26,0.01 830.51,0.05 1245.77,0 C1245.7,62.97 1245.75,125.94 1245.74,188.91 C830.49,188.94 415.25,188.92 0,188.92 C0,125.95 0,62.98 0,0.02"  fill="#FFA700"></path>
        </g>
        <g id="360" fill="#040503" transform="translate(0.000000, 347.670761)">
            <path d="M449.42,40.46 C464.63,36.45 480.61,34.09 496.29,36.37 C506.07,37.69 516.55,40.91 522.69,49.19 C529.28,58.37 529.6,70.96 525.81,81.33 C523.61,87.41 518.45,91.66 513.07,94.87 C518.87,97.9 524.03,102.63 526.14,108.99 C529.33,118.48 528.94,129.25 524.6,138.32 C519.55,148.25 508.42,153.2 497.86,154.67 C481.5,156.84 464.78,155.16 448.89,150.85 C448.8,144.21 448.86,137.57 448.84,130.93 C459.03,133.8 469.4,136.62 480.08,136.54 C487.77,136.69 496.61,136.9 502.62,131.27 C508.03,125.72 507.11,116.68 503.51,110.4 C501.01,106.1 495.82,104.42 491.1,104.41 C481.25,104.33 471.4,104.45 461.55,104.37 C461.5,98.02 461.52,91.67 461.53,85.32 C471.41,85.24 481.29,85.35 491.17,85.28 C496.29,85.22 501.89,82.91 504.17,78.04 C506.87,72.35 507.82,64.73 503.12,59.8 C498.32,55.37 491.32,55.11 485.16,54.55 C473.07,54.68 460.95,56.43 449.43,60.2 C449.37,53.62 449.38,47.04 449.42,40.46 Z" ></path>
            <path d="M574.98,68.64 C585.99,53.06 602.06,42.04 618.53,32.9 C622.37,38.36 625.57,44.23 629.04,49.93 C613.66,57.38 598.23,66.9 589.3,81.96 C596.74,79.94 604.4,78.3 612.15,78.55 C622.33,79.39 633.32,80.6 641.49,87.39 C650.08,93.97 653.18,105.41 652.72,115.82 C652.99,127.39 649.13,140.06 639.33,147.02 C628.98,154.72 615.52,155.87 603.05,155.52 C592.34,155.33 581.06,152.33 573.37,144.5 C565.73,137.03 562.99,126.13 561.92,115.84 C560.44,99.23 565.2,82.15 574.98,68.64 M600.55,96.52 C595.12,97.23 589.57,97.96 584.52,100.13 C581.79,106.37 582.92,113.54 584.01,120.05 C585.37,127.88 590.95,135.23 598.84,137.27 C605.55,138.91 612.85,138.63 619.35,136.22 C625.75,133.79 629.99,127.46 630.85,120.8 C632.25,113.57 631.09,104.82 624.75,100.18 C617.76,95.19 608.64,96.08 600.55,96.52 Z" ></path>
            <path d="M696.46,53.17 C707.82,40.23 724.9,32.45 742.13,32.59 C744.51,32.69 746.09,34.78 747.86,36.13 C751.49,39.52 755.84,42.37 758.29,46.83 C751.86,49.93 745.54,54.04 738.15,54.08 C723.63,55.09 710.35,65.19 705.03,78.66 C702.4,85.62 700.81,93.31 702.6,100.67 C704.79,114.07 714.24,126.03 726.89,131.03 C733.99,133.67 741.82,135.3 749.31,133.4 C759.65,131.56 769.24,125.61 775.14,116.88 C784.9,103.36 784.74,83.61 774.69,70.3 C770.11,63.68 763.22,59.04 755.89,55.97 C760.71,53.68 765.63,51.55 770.22,48.8 C766.5,43.33 761.19,39.26 756.87,34.31 C770.31,37.89 782.8,45.66 791.07,56.96 C799.7,68.24 804.17,82.66 803.53,96.85 C802.67,112.6 795.57,127.95 784.04,138.73 C772.98,148.89 758.23,155.13 743.14,155.17 C727.17,155.59 711.28,149.16 699.78,138.14 C689.98,128.65 683.19,115.9 681.53,102.3 C678.93,84.79 684.53,66.26 696.46,53.17 Z" ></path>
            <path d="M830.6,34.67 C837.25,33.67 845.14,34.92 849.51,40.51 C853.33,45.41 853.16,51.94 852.84,57.82 C852.59,64.4 848.11,70.9 841.47,72.33 C834.36,73.9 825.38,73.67 820.38,67.58 C815.71,61.92 815.99,54.08 816.86,47.23 C818.11,40.54 823.85,35.36 830.6,34.67 M831.5,40.3 C828.83,40.74 826.47,42.44 825.1,44.74 C822.77,48.31 823.32,52.78 823.38,56.82 C823.33,61.54 826.61,66.42 831.43,67.25 C834.94,67.65 838.9,67.8 841.89,65.58 C844.98,63.4 845.95,59.42 846.26,55.86 C846.53,51.59 846.17,46.9 843.5,43.39 C840.6,40 835.62,39.61 831.5,40.3 Z" ></path>
        </g>
        <g id="TOP" transform="translate(0.000000, 0.000000)" fill="#040503">
            <path d="M565.498926,0.200761472 C581.138926,-1.13923853 597.248926,4.28076147 608.808926,14.9007615 C619.958926,24.8907615 627.048926,39.4907615 627.628926,54.4707615 C627.658926,120.150761 627.647505,185.820761 627.628926,251.500761 C627.058926,277.170761 606.648926,300.570761 581.438926,305.080761 C565.538926,308.260761 548.398926,304.160761 535.618926,294.210761 C523.318926,284.810761 515.198926,270.180761 513.618926,254.800761 C512.828926,249.730761 513.088926,244.580761 513.068926,239.480761 C513.078926,184.810761 513.068926,130.150761 513.068926,75.4807615 C513.108926,62.1307615 512.018926,48.1907615 517.618926,35.6707615 C525.318926,16.0707615 544.628926,2.09076147 565.498926,0.200761472 M564.588926,23.7307615 C548.928926,26.1307615 536.578926,40.6707615 536.468926,56.4607615 C536.448926,120.800761 536.468926,185.140761 536.458926,249.490761 C536.578926,260.950761 542.858926,272.150761 552.748926,278.030761 C561.288926,283.540761 572.378926,284.440761 581.918926,281.190761 C591.508926,277.580761 599.678926,269.770761 602.768926,259.870761 C605.508926,252.370761 604.688926,244.300761 604.788926,236.480761 C604.798926,178.130761 604.758926,119.790761 604.808926,61.4407615 C605.038926,55.2307615 604.098926,48.9407615 601.538926,43.2507615 C595.688926,29.3007615 579.368926,20.7507615 564.588926,23.7307615 Z" ></path>
            <path d="M687.778926,23.0707615 C697.498926,9.92076147 713.098926,1.41076147 729.378926,0.160761472 C746.138926,-1.06923853 763.368926,5.54076147 774.838926,17.8707615 C785.298926,28.5107615 791.198926,43.5607615 790.658926,58.4907615 C790.638926,72.7107615 790.648926,86.9407615 790.648926,101.160761 C783.118926,102.040761 775.608926,103.110761 768.068926,103.840761 C767.758926,91.0607615 768.068926,78.2707615 767.948926,65.4807615 C767.838926,60.1207615 768.398926,54.6607615 767.058926,49.4107615 C765.308926,40.9907615 759.918926,33.6307615 752.948926,28.7407615 C742.858926,21.7807615 728.968926,20.8307615 718.068926,26.4907615 C706.818926,31.8507615 699.258926,43.9607615 699.298926,56.4107615 C699.328926,121.130761 699.298926,185.840761 699.308926,250.550761 C699.398926,265.440761 710.788926,279.120761 725.228926,282.420761 C734.498926,284.500761 744.688926,283.130761 752.618926,277.700761 C762.078926,271.700761 767.828926,260.660761 767.948926,249.530761 C767.958926,235.920761 767.948926,222.320761 767.948926,208.720761 C775.518926,208.660761 783.098926,208.710761 790.678926,208.680761 C790.598926,221.960761 790.658926,235.240761 790.648926,248.510761 C791.078926,264.830761 783.648926,281.000761 771.428926,291.730761 C761.308926,300.810761 747.828926,306.030761 734.228926,306.120761 C719.058926,306.370761 703.958926,300.180761 693.218926,289.480761 C682.128926,278.510761 676.188926,263.000761 676.118926,247.480761 C676.118926,184.820761 676.108926,122.150761 676.128926,59.4807615 C676.218926,46.5307615 679.838926,33.4407615 687.778926,23.0707615 Z" ></path>
            <path d="M438.758926,3.60076147 C446.658926,3.63076147 454.568926,3.62076147 462.468926,3.61076147 C462.448926,103.020761 462.488926,202.420761 462.448926,301.830761 C454.558926,301.850761 446.668926,301.842796 438.788926,301.830761 C438.748926,202.420761 438.798926,103.010761 438.758926,3.60076147 Z" ></path>
            <path d="M91.6289256,4.66076147 C99.2289256,4.34076147 106.838926,4.30076147 114.428926,4.67076147 C114.408926,103.710761 114.498926,202.750761 114.388926,301.790761 C106.808926,301.830761 99.2389256,301.790761 91.6589256,301.820761 C91.6289256,256.060761 91.6889256,210.300761 91.6289256,164.540761 C68.6589256,164.530761 45.6889256,164.510761 22.7189256,164.550761 C22.6889256,210.290761 22.7589256,256.040761 22.6889256,301.780761 C15.1389256,301.830761 7.57892562,301.820761 0.0289256198,301.790761 C-0.0210743802,202.740761 0.00892561985,103.690761 0.00892561985,4.64076147 C7.56892562,4.33076147 15.1489256,4.31076147 22.7089256,4.67076147 C22.7389256,50.2407615 22.6789256,95.8207615 22.7389256,141.400761 C45.7089256,141.390761 68.6689256,141.450761 91.6389256,141.380761 C91.6589256,95.8007615 91.6689256,50.2307615 91.6289256,4.66076147 Z" ></path>
            <path d="M167.318926,4.76076147 C173.278926,4.25076147 179.258926,4.48076147 185.228926,4.44076147 C210.968926,4.58076147 236.718926,4.16076147 262.448926,4.65076147 C262.448926,12.1407615 262.458926,19.6407615 262.438926,27.1307615 C238.388926,27.2107615 214.328926,27.1107615 190.268926,27.1807615 C190.288926,65.2407615 190.228926,103.310761 190.298926,141.380761 C208.068926,141.620761 225.848926,141.030761 243.608926,141.690761 C243.548926,149.390761 243.608926,157.100761 243.558926,164.800761 C225.798926,164.870761 208.038926,164.750761 190.278926,164.860761 C190.288926,202.940761 190.218926,241.020761 190.318926,279.100761 C215.518926,279.170761 240.718926,279.100761 265.928926,279.130761 C266.508926,286.670761 266.538926,294.270761 265.908926,301.800761 C233.108926,301.820761 200.298926,301.800761 167.498926,301.810761 C167.008926,296.380761 167.198926,290.920761 167.168926,285.480761 C167.168926,233.480761 167.168926,181.480761 167.168926,129.480761 C167.268926,87.9107615 166.978926,46.3307615 167.318926,4.76076147 Z" ></path>
            <path d="M306.068926,4.82076147 C313.658926,4.18076147 321.298926,4.37076147 328.908926,4.65076147 C328.918926,96.1207615 328.788926,187.590761 328.978926,279.050761 C352.918926,279.200761 376.858926,279.090761 400.798926,279.110761 C400.768926,286.680761 400.788926,294.250761 400.778926,301.820761 C369.338926,301.810761 337.898926,301.800761 306.458926,301.820761 C305.868926,296.390761 306.098926,290.930761 306.068926,285.480761 C306.068926,191.930761 306.078926,98.3707615 306.068926,4.82076147 Z" ></path>
            <path d="M865.898926,4.62076147 C878.748926,4.33076147 891.608926,4.32076147 904.458926,4.63076147 C919.668926,103.660761 934.668926,202.730761 949.838926,301.770761 C942.278926,301.840761 934.708926,301.818518 927.148926,301.780761 C922.958926,276.430761 919.408926,250.970761 915.098926,225.630761 C894.928926,225.460761 874.758926,225.500761 854.588926,225.610761 C852.138926,241.770761 849.868926,257.950761 847.418926,274.110761 C845.978926,283.310761 844.368926,292.490761 843.328926,301.740761 C835.728926,301.870761 828.138926,301.800761 820.538926,301.790761 C832.958926,219.090761 845.818926,136.460761 858.278926,53.7707615 C860.918926,37.4007615 863.248926,20.9907615 865.898926,4.62076147 M882.358926,45.8807615 C879.328926,64.4207615 876.728926,83.0107615 873.818926,101.570761 C868.738926,135.270761 863.258926,168.920761 858.498926,202.680761 C876.158926,202.770761 893.818926,202.730761 911.478926,202.700761 C904.188926,153.380761 896.718926,104.090761 889.258926,54.7907615 C887.838926,47.0607615 887.408926,39.1407615 885.358926,31.5407615 C883.318926,36.0407615 883.228926,41.0907615 882.358926,45.8807615 Z" ></path>
            <path d="M986.638926,4.65076147 C1004.14893,4.29076147 1021.67893,4.34076147 1039.19893,4.61076147 C1068.09893,4.95076147 1094.65893,28.7907615 1097.97893,57.4907615 C1097.18893,65.7907615 1097.53893,74.1507615 1097.45893,82.4807615 C1097.52893,92.2407615 1097.19893,102.030761 1097.94893,111.760761 C1095.76893,128.130761 1086.00893,142.930761 1072.95893,152.810761 C1085.69893,163.130761 1095.88893,177.670761 1097.94893,194.210761 C1096.94893,203.260761 1097.56893,212.380761 1097.43893,221.480761 C1097.48893,239.810761 1097.38893,258.150761 1097.49893,276.480761 C1097.67893,284.840761 1096.90893,293.270761 1097.99893,301.580761 C1090.66893,302.030761 1083.31893,301.810761 1075.98893,301.750761 C1075.98893,269.990761 1075.96893,238.230761 1075.99893,206.470761 C1076.09893,200.860761 1075.75893,195.140761 1073.77893,189.830761 C1069.79893,178.600761 1060.32893,169.350761 1048.83893,166.040761 C1043.78893,164.440761 1038.44893,164.500761 1033.21893,164.520761 C1025.25893,164.560761 1017.30893,164.480761 1009.34893,164.570761 C1009.28893,198.540761 1009.33893,232.510761 1009.32893,266.480761 C1009.21893,278.250761 1009.55893,290.040761 1009.11893,301.810761 C1001.62893,301.810761 994.138926,301.810761 986.658926,301.800761 C986.588926,202.750761 986.638926,103.700761 986.638926,4.65076147 M1009.39893,27.4607615 C1009.43893,65.4007615 1009.33893,103.340761 1009.44893,141.280761 C1018.37893,141.430761 1027.30893,141.300761 1036.24893,141.370761 C1043.40893,141.520761 1050.48893,139.420761 1056.71893,135.970761 C1068.13893,129.450761 1075.62893,116.650761 1075.72893,103.500761 C1075.83893,90.8007615 1075.82893,78.1007615 1075.73893,65.4107615 C1075.69893,55.3407615 1071.35893,45.5307615 1064.23893,38.4707615 C1057.30893,31.8107615 1047.94893,27.6307615 1038.29893,27.4807615 C1028.66893,27.4507615 1019.02893,27.5207615 1009.39893,27.4607615 Z" ></path>
            <path d="M1147.02893,4.63076147 C1173.75893,4.18076147 1200.49893,4.57076147 1227.22893,4.44076147 C1232.25893,4.44076147 1237.30893,4.26076147 1242.32893,4.88076147 C1242.26893,12.2707615 1242.44893,19.6607615 1242.19893,27.0507615 C1218.03893,27.3007615 1193.85893,27.0807615 1169.68893,27.1607615 C1169.69893,65.2407615 1169.64893,103.320761 1169.71893,141.400761 C1187.46893,141.480761 1205.21893,141.260761 1222.96893,141.520761 C1223.36893,149.290761 1223.43893,157.090761 1222.89893,164.850761 C1205.15893,164.780761 1187.42893,164.820761 1169.69893,164.840761 C1169.68893,202.930761 1169.64893,241.020761 1169.70893,279.110761 C1194.94893,279.130761 1220.18893,279.150761 1245.42893,279.100761 C1245.76893,286.640761 1245.57893,294.200761 1245.55893,301.750761 C1212.71893,301.811012 1179.86893,301.860761 1147.02893,301.720761 C1147.01893,202.690761 1147.01893,103.660761 1147.02893,4.63076147 Z" ></path>
            <path d="M1098.17893,109.950761 C1097.87893,92.9707615 1097.85893,75.9507615 1098.17893,58.9707615 C1099.37893,68.4207615 1098.49893,77.9807615 1098.76893,87.4807615 C1098.56893,94.9707615 1099.27893,102.510761 1098.17893,109.950761 Z" ></path>
            <path d="M1097.40893,206.480761 C1097.37893,202.970761 1098.17893,199.510761 1098.45893,196.020761 C1099.15893,223.820761 1098.57893,251.660761 1098.75893,279.480761 C1098.50893,287.060761 1099.35893,294.730761 1098.22893,302.260761 C1097.64893,278.340761 1098.19893,254.400761 1097.98893,230.480761 C1097.82893,222.480761 1098.51893,214.430761 1097.40893,206.480761 Z" ></path>
        </g>
    </g>
</svg>