<svg viewBox="0 0 2084 2085" xmlns="http://www.w3.org/2000/svg">
    <g id="pinterest" transform="translate(0.000000, 0.679170)">
        <g id="pinterest-white" fill="#FFFFFF">
            <path d="M2083.335,1042.155 C2083.335,1617.45129 1616.96379,2083.8225 1041.6675,2083.8225 C466.371206,2083.8225 0,1617.45129 0,1042.155 C0,466.858707 466.371206,0.48750039 1041.6675,0.48750039 C1616.96379,0.48750039 2083.335,466.858707 2083.335,1042.155 Z"></path>
        </g>
        <g id="pinterest-black" fill="#E61D27">
            <path d="M654.950524,2009.11411 C641.92968,1890.62651 651.042187,1777.34309 677.083875,1667.968 L781.250625,1218.75098 C764.325611,1164.06343 751.304768,1101.56338 751.304768,1039.06333 C751.304768,893.229881 821.617324,789.063131 932.292413,789.063131 C1009.11331,789.063131 1065.10919,842.450674 1065.10919,945.313256 C1065.10919,977.867449 1058.59251,1014.32164 1045.57584,1055.98834 L1000.0008,1205.73013 C990.888293,1234.37599 986.979956,1261.71768 986.979956,1285.15936 C986.979956,1389.32611 1066.40919,1447.91783 1167.9676,1447.91783 C1348.95941,1447.91783 1477.86785,1260.41768 1477.86785,1016.92581 C1477.86785,746.09643 1300.78437,572.912958 1039.06333,572.912958 C747.396431,572.912958 562.50045,763.021444 562.50045,1027.34666 C562.50045,1134.11757 595.054643,1233.07182 658.854694,1300.78437 C638.021344,1335.93857 615.887993,1342.44691 582.033799,1342.44691 C477.867049,1342.44691 378.90447,1195.30929 378.90447,994.792463 C378.90447,648.438019 656.250525,372.400298 1045.57584,372.400298 C1454.42616,372.400298 1710.93887,657.554693 1710.93887,1009.11331 C1710.93887,1363.28026 1460.93867,1628.90964 1191.40929,1628.90964 C1084.6342,1628.90964 990.888293,1583.3346 925.779907,1501.3012 L872.396531,1717.45137 C843.750675,1829.42646 800.783974,1934.89321 731.771419,2036.4558 C829.42983,2066.40999 925.779907,2083.335 1041.6675,2083.335 C1617.18879,2083.335 2083.335,1617.18879 2083.335,1041.6675 C2083.335,466.146206 1617.18879,0 1041.6675,0 C466.146206,0 0,466.146206 0,1041.6675 C0,1477.86785 268.229381,1854.16398 654.950524,2009.11411 Z"></path>
        </g>
    </g>
</svg>