<svg viewBox="0 0 651 751" xmlns="http://www.w3.org/2000/svg">
    <g fill="#000000" >
        <path d="M569.111123,160.40625 C564.048921,157.789867 559.120878,154.921694 554.345498,151.8125 C540.458882,142.632111 527.726826,131.814848 516.423623,119.59375 C488.142373,87.234375 477.579873,54.40625 473.689248,31.421875 L473.845498,31.421875 C470.595498,12.34375 471.939248,0 472.142373,0 L343.329873,0 L343.329873,498.09375 C343.329873,504.78125 343.329873,511.390625 343.048623,517.921875 C343.048623,518.734375 342.970498,519.484375 342.923623,520.359375 C342.923623,520.71875 342.923623,521.09375 342.845498,521.46875 C342.845498,521.5625 342.845498,521.65625 342.845498,521.75 C340.088257,558.041256 319.459392,590.583554 287.814248,608.5625 C271.572746,617.802425 253.20325,622.649258 234.517373,622.625 C174.501748,622.625 125.861123,573.6875 125.861123,513.25 C125.861123,452.8125 174.501748,403.875 234.517373,403.875 C245.878047,403.864455 257.168789,405.6522 267.970498,409.171875 L268.126748,278.015625 C201.832375,269.452214 134.978241,289.009881 83.7517479,331.953125 C61.5496448,351.243763 42.8842463,374.260896 28.5954979,399.96875 C23.1579979,409.34375 2.64237287,447.015625 0.157997866,508.15625 C-1.40450213,542.859375 9.01737287,578.8125 13.9861229,593.671875 L13.9861229,593.984375 C17.1111229,602.734375 29.2204979,632.59375 48.9548729,657.765625 C64.8679498,677.957258 83.6687308,695.694539 104.751748,710.40625 L104.751748,710.09375 L105.064248,710.40625 C167.423623,752.78125 236.564248,750 236.564248,750 C248.532998,749.515625 288.626748,750 334.157998,728.421875 C384.657998,704.5 413.407998,668.859375 413.407998,668.859375 C431.774988,647.563743 446.379753,623.294682 456.595498,597.09375 C468.251748,566.453125 472.142373,529.703125 472.142373,515.015625 L472.142373,250.765625 C473.704873,251.703125 494.517373,265.46875 494.517373,265.46875 C494.517373,265.46875 524.501748,284.6875 571.282998,297.203125 C604.845498,306.109375 650.064248,307.984375 650.064248,307.984375 L650.064248,180.109375 C634.220498,181.828125 602.048623,176.828125 569.111123,160.40625 Z"></path>
    </g>
</svg>